<?xml version="1.0" encoding="utf-8"?>
<!-- Generator: Adobe Illustrator 22.1.0, SVG Export Plug-In . SVG Version: 6.00 Build 0)  -->
<svg version="1.1" id="Layer_1" xmlns="http://www.w3.org/2000/svg" xmlns:xlink="http://www.w3.org/1999/xlink" x="0px" y="0px"
	 viewBox="0 0 9.9 9.9" style="enable-background:new 0 0 9.9 9.9;" xml:space="preserve">
<style type="text/css">
	.st0{fill:#13422D;}
	.st1{fill:#C4A64C;}
	.st2{fill:none;stroke:#13422D;stroke-width:0.4625;stroke-miterlimit:10;}
	.st3{fill:none;stroke:#030303;stroke-width:0.4625;stroke-miterlimit:10;}
</style>
<path class="st0" d="M9.9,9.9H0l0-0.6c0-1,0-1.8,1.4-2.1l0.1,0c0.8-0.2,1.7-0.4,1.9-0.8c0.1-0.2,0-0.4-0.1-0.6
	c-1-1.8-1.2-3.5-0.5-4.5C3.2,0.4,4,0,4.9,0c0.9,0,1.7,0.4,2.2,1.1c0.6,1.1,0.5,2.7-0.5,4.6C6.4,6,6.4,6.2,6.5,6.3
	c0.2,0.4,1.1,0.6,1.9,0.8l0.1,0c1.4,0.3,1.4,1.2,1.4,2.1L9.9,9.9z"/>
</svg>
