<svg version="1.1" id="Layer_1" xmlns="http://www.w3.org/2000/svg" xmlns:xlink="http://www.w3.org/1999/xlink" x="0px" y="0px"
	 viewBox="0 0 10.5 10.5" style="enable-background:new 0 0 10.5 10.5;" xml:space="preserve">
<style type="text/css">
	.st0{fill:#13422D;}
	.st1{fill:none;stroke:#13422D;stroke-width:0.4625;stroke-miterlimit:10;}
	.st2{fill:none;stroke:#030303;stroke-width:0.4625;stroke-miterlimit:10;}
</style>
<g>
	<path class="st0" d="M5.2,0C2.4,0,0,2.4,0,5.2s2.4,5.2,5.2,5.2s5.2-2.4,5.2-5.2S8.1,0,5.2,0z M5.2,9.9c-2.6,0-4.7-2.1-4.7-4.7
		s2.1-4.7,4.7-4.7s4.7,2.1,4.7,4.7S7.8,9.9,5.2,9.9z"/>
	<path class="st0" d="M6.4,4.6H5.5V4c0-0.1,0-0.5,0.5-0.5h0.4V2.8H5.5C4.9,2.8,4.6,3,4.6,3.6v1H3.7V5h0.9v2.7h0.9V5h0.8L6.4,4.6z"/>
</g>
</svg>
