<?xml version="1.0" encoding="utf-8"?>
<!-- Generator: Adobe Illustrator 22.1.0, SVG Export Plug-In . SVG Version: 6.00 Build 0)  -->
<svg version="1.1" id="Layer_1" xmlns="http://www.w3.org/2000/svg" xmlns:xlink="http://www.w3.org/1999/xlink" x="0px" y="0px"
	 viewBox="0 0 10.5 10.5" style="enable-background:new 0 0 10.5 10.5;" xml:space="preserve">
<style type="text/css">
	.st0{fill:#13422D;}
	.st1{fill:none;stroke:#13422D;stroke-width:0.4625;stroke-miterlimit:10;}
	.st2{fill:none;stroke:#030303;stroke-width:0.4625;stroke-miterlimit:10;}
</style>
<g>
	<path class="st0" d="M8.6,2.3c0-0.2-0.2-0.4-0.4-0.4c-0.2,0-0.4,0.2-0.4,0.4s0.2,0.4,0.4,0.4C8.4,2.8,8.6,2.6,8.6,2.3z"/>
	<path class="st0" d="M7.5,0C6.9,0,6.7,0,5.2,0C3.8,0,3.6,0,3,0C1.1,0.1,0.1,1.1,0,3c0,0.6,0,0.8,0,2.2c0,1.5,0,1.7,0,2.2
		c0.1,1.9,1.1,2.9,3,3c0.6,0,0.8,0,2.2,0c1.5,0,1.7,0,2.2,0c1.9-0.1,2.9-1.1,3-3c0-0.6,0-0.8,0-2.2c0-1.5,0-1.7,0-2.2
		C10.4,1.1,9.4,0.1,7.5,0z M10,5.3c0,1.5,0,1.6,0,2.2C9.9,9.1,9.1,9.9,7.5,9.9c-0.6,0-0.8,0-2.2,0s-1.6,0-2.2,0
		C1.4,9.9,0.6,9.1,0.6,7.5c0-0.6,0-0.7,0-2.2c0-1.5,0-1.6,0-2.2C0.6,1.4,1.4,0.6,3,0.6c0.6,0,0.8,0,2.2,0c1.5,0,1.6,0,2.2,0
		C9.1,0.6,9.9,1.4,9.9,3C10,3.6,10,3.8,10,5.3z"/>
	<path class="st0" d="M5.2,2.7c-1.4,0-2.6,1.2-2.6,2.6c0,1.4,1.2,2.6,2.6,2.6s2.6-1.2,2.6-2.6C7.8,3.8,6.7,2.7,5.2,2.7z M5.2,7.3
		c-1.1,0-2.1-0.9-2.1-2.1s0.9-2.1,2.1-2.1s2.1,0.9,2.1,2.1S6.4,7.3,5.2,7.3z"/>
</g>
</svg>
