<?xml version="1.0" encoding="utf-8"?>
<!-- Generator: Adobe Illustrator 22.1.0, SVG Export Plug-In . SVG Version: 6.00 Build 0)  -->
<svg version="1.1" id="Layer_1" xmlns="http://www.w3.org/2000/svg" xmlns:xlink="http://www.w3.org/1999/xlink" x="0px" y="0px"
	 viewBox="0 0 41.9 40.3" style="enable-background:new 0 0 41.9 40.3;" xml:space="preserve">
<style type="text/css">
	.st0{fill:#13422D;}
</style>
<g>
	<g>
		<path class="st0" d="M30,16.8H11.9V12H30V16.8z M12.3,16.4h17.2v-3.9H12.3V16.4z"/>
		<path class="st0" d="M29.3,28.6H12.6V16.4h16.8V28.6z M13,28.2h15.8V16.8H13V28.2z"/>
		<path class="st0" d="M24.1,22.8h-6.4v-3.5h6.4V22.8z M18.2,22.4h5.4v-2.5h-5.4V22.4z"/>
	</g>
	<g>
		<path class="st0" d="M21.7,40.3c-8.1,0-15.4-4.8-18.5-12.3l0.4-0.2c3.1,7.3,10.2,12.1,18.1,12.1c10.8,0,19.7-8.8,19.7-19.7
			S32.5,0.5,21.7,0.5C12.2,0.5,4,7.3,2.3,16.6l-0.5-0.1C3.6,7,12,0.1,21.7,0.1c11.1,0,20.1,9,20.1,20.1
			C41.8,31.3,32.8,40.3,21.7,40.3z"/>
		<polygon class="st0" points="1.9,17 0.1,8.2 0.5,8.2 2.3,16.2 9.1,11.6 9.3,12 		"/>
	</g>
</g>
</svg>
