<?xml version="1.0" encoding="UTF-8"?> <!-- Generator: Adobe Illustrator 22.1.0, SVG Export Plug-In . SVG Version: 6.00 Build 0) --> <svg xmlns="http://www.w3.org/2000/svg" xmlns:xlink="http://www.w3.org/1999/xlink" version="1.1" id="Layer_1" x="0px" y="0px" viewBox="0 0 11 10.4" style="enable-background:new 0 0 11 10.4;" xml:space="preserve"> <style type="text/css"> .st0{fill:#13422D;} .st1{fill:none;stroke:#13422D;stroke-width:0.4625;stroke-miterlimit:10;} .st2{fill:none;stroke:#030303;stroke-width:0.4625;stroke-miterlimit:10;} </style> <path class="st0" d="M5.5,10.4L5.3,10C5,9.4,4.2,8.7,3.3,8C1.7,6.7,0,5.3,0,3.2C0,1.1,1.5,0,3.1,0c1,0,1.9,0.5,2.4,1.3 C6.1,0.5,7,0,8,0C9.5,0,11,1.1,11,3.2C11,5.3,9.3,6.7,7.8,8C6.9,8.7,6,9.4,5.7,10L5.5,10.4z M3.1,0.4c-1.3,0-2.7,0.9-2.7,2.8 c0,1.9,1.7,3.3,3.1,4.5c0.8,0.6,1.6,1.3,2,1.9c0.4-0.7,1.2-1.3,2-1.9c1.5-1.2,3.1-2.6,3.1-4.5c0-1.9-1.4-2.8-2.7-2.8 c-1,0-1.8,0.5-2.3,1.4L5.5,2.2L5.3,1.8C4.9,0.9,4.1,0.4,3.1,0.4z"></path> </svg> 