<?xml version="1.0" encoding="utf-8"?>
<!-- Generator: Adobe Illustrator 21.1.0, SVG Export Plug-In . SVG Version: 6.00 Build 0)  -->
<svg version="1.1" id="Layer_1" xmlns="http://www.w3.org/2000/svg" xmlns:xlink="http://www.w3.org/1999/xlink" x="0px" y="0px"
	 viewBox="0 0 94.1 14.6" style="enable-background:new 0 0 94.1 14.6;" xml:space="preserve">
<path d="M10.5,11.6v2.7H0v-14h10.3V3H3v2.8h5.7v2.7H3v3.1H10.5z"/>
<path d="M27.2,6.7v5.2L27,12.2c-0.2,0.2-0.5,0.5-0.8,0.6c-0.4,0.3-0.8,0.6-1.2,0.8c-0.5,0.3-1.1,0.5-1.7,0.6
	c-0.7,0.2-1.4,0.3-2.2,0.3c-2,0-4-0.7-5.4-2.1c-2.8-2.7-3-7.2-0.2-10.1c0.1-0.1,0.1-0.2,0.2-0.2c2-1.9,4.8-2.6,7.5-1.9
	c0.6,0.2,1.1,0.4,1.6,0.7c0.4,0.2,0.8,0.5,1.1,0.8c0.3,0.2,0.5,0.4,0.7,0.7l0.2,0.3L25,4.7l-0.2-0.2c-0.1-0.2-0.3-0.3-0.5-0.5
	c-0.2-0.2-0.5-0.4-0.8-0.6c-0.3-0.2-0.7-0.4-1.1-0.5c-0.5-0.1-0.9-0.2-1.4-0.2c-2.5,0-4.6,2.1-4.6,4.6c0,2.5,2.1,4.6,4.6,4.6
	c0,0,0,0,0,0c0.6,0,1.3-0.1,1.9-0.3c0.6-0.1,1.1-0.4,1.5-0.8V8.9h-2.8V6.7L27.2,6.7z"/>
<path d="M39.7,13c-2,2-5.2,2-7.2,0.1c0,0,0,0-0.1-0.1c-2-1.8-2.1-4.9-0.2-6.9c0.1-0.1,0.2-0.2,0.2-0.2c2-2,5.2-2,7.2-0.1
	c0,0,0,0,0.1,0.1c2,1.8,2.1,4.9,0.2,6.9C39.8,12.8,39.8,12.9,39.7,13z M34.3,11.3c0.8,0.9,2.3,1,3.2,0.2c0.1-0.1,0.1-0.1,0.2-0.2
	c1-1,1-2.7,0-3.7c-0.8-0.9-2.3-1-3.2-0.2c-0.1,0.1-0.1,0.1-0.2,0.2C33.4,8.6,33.4,10.2,34.3,11.3z"/>
<path d="M55.1,0.3V3h-7.3v3.1h5.7v2.7h-5.7v5.5h-3v-14L55.1,0.3z"/>
<path d="M58.7,0.3h3v14h-3V0.3z"/>
<path d="M66.3,14.3v-14h3v11.3h6.5v2.7L66.3,14.3z"/>
<path d="M91.5,0.3h2.7v14h-3V5l-4.5,5.7L82.1,5v9.3h-3v-14h2.7l4.8,6.1L91.5,0.3z"/>
</svg>
