<?xml version="1.0" encoding="utf-8"?>
<!-- Generator: Adobe Illustrator 23.1.1, SVG Export Plug-In . SVG Version: 6.00 Build 0)  -->
<svg version="1.1" id="Layer_1" xmlns="http://www.w3.org/2000/svg" xmlns:xlink="http://www.w3.org/1999/xlink" x="0px"
  y="0px" viewBox="0 0 1196.24 216.82" style="enable-background:new 0 0 1196.24 216.82;" xml:space="preserve">
  <style type="text/css">
    .st0 {
      fill: #231F20;
    }
  </style>
  <g>
    <path class="st0" d="M142.8,84.17v42.67H52.25v42.67h106.81v42.67H0V4.64h157.32v42.67H52.25v36.86H142.8z" />
    <path class="st0" d="M269.36,42.67c-34.25,0-47.31,26.7-47.31,65.6c0,39.18,13.06,65.89,49.34,65.89
		c24.09,0,40.93-14.51,41.51-34.54h-39.47v-37.73h93.46v110.3h-37.44l-5.22-26.41h-0.58c-9.87,18.87-29.32,31.06-59.79,31.06
		c-58.92,0-94.04-45.86-94.04-108.55C169.8,45.86,204.92,0,270.23,0c56.89,0,88.53,33.67,93.46,73.43h-52.25
		C307.67,59.21,298.09,42.67,269.36,42.67z" />
    <path class="st0" d="M464.8,216.82c-49.63,0-79.53-32.8-79.53-78.95s29.9-78.95,79.53-78.95c49.34,0,79.24,32.8,79.24,78.95
		S514.14,216.82,464.8,216.82z M464.8,181.99c20.32,0,32.8-15.38,32.8-44.12s-12.48-44.12-32.8-44.12
		c-20.61,0-33.09,15.38-33.09,44.12S444.19,181.99,464.8,181.99z" />
    <path class="st0" d="M698.45,92.88v42.67h-83.3v76.63h-52.25V4.64h154.41v42.67H615.15v45.57H698.45z" />
    <path class="st0" d="M790.18,4.64v207.53h-52.25V4.64H790.18z" />
    <path class="st0" d="M870.86,4.64v164.86h92.3v42.67H818.62V4.64H870.86z" />
    <path class="st0" d="M982.61,4.64h63.86L1089.13,137h0.58l42.67-132.35h63.86v207.53h-49.34V83.01h-0.58l-38.6,129.16h-36.57
		l-38.6-129.16h-0.58v129.16h-49.34V4.64z" />
  </g>
</svg>