<?xml version="1.0" encoding="utf-8"?>
<!-- Generator: Adobe Illustrator 21.1.0, SVG Export Plug-In . SVG Version: 6.00 Build 0)  -->
<svg version="1.1" id="Layer_1" xmlns="http://www.w3.org/2000/svg" xmlns:xlink="http://www.w3.org/1999/xlink" x="0px" y="0px"
	 viewBox="0 0 43.4 19.4" style="enable-background:new 0 0 43.4 19.4;" xml:space="preserve">
<title>EGoFILM Logotyp Final</title>
<path d="M33.6,0c-4.5,0-7.7,2.3-11.8,6.5l-0.1-0.1C18,2.8,15.2,0,10.1,0C4.3,0,0,4.1,0,9.6c0,5.7,4.2,9.8,10,9.8
	c5.3,0,8.9-3.6,11.2-6l0.4-0.4l0.5,0.4l0.3,0.3c2.6,2.5,5.9,5.7,11.2,5.7c5.3,0.2,9.6-4,9.8-9.2c0-0.1,0-0.3,0-0.4
	C43.4,4,39.5,0,33.6,0z M38.7,10c0,2.7-2.2,4.9-4.9,4.8c0,0-0.1,0-0.1,0c-3.2,0-5-1.6-8.8-5.1c3.7-3.5,5.5-5.1,8.8-5.1
	C37.4,4.6,38.7,7.5,38.7,10z M18.6,9.9c-3.5,3.3-5.5,4.9-8.4,4.9c-2.7,0-5.4-1.8-5.4-4.8c0-3.2,2-5.3,5-5.3
	C13,4.6,14.9,6.2,18.6,9.9L18.6,9.9z"/>
</svg>
