<svg id="SVGDoc" width="27" height="23" xmlns="http://www.w3.org/2000/svg" version="1.1"
  xmlns:xlink="http://www.w3.org/1999/xlink" xmlns:avocode="https://avocode.com/" viewBox="0 0 27 23">
  <defs>
    <clipPath id="ClipPath1031">
      <path
        d="M13.21124,5.60625c-3.07343,-7.27391 -11.80996,-5.57688 -11.86752,2.86428c-0.0317,4.63769 4.16016,6.37099 6.95137,8.22409c2.7063,1.79814 4.63257,4.25575 4.93435,5.3043c0.25841,-1.02712 2.40383,-3.55617 4.90917,-5.35486c2.73926,-1.96851 6.98296,-3.58694 6.95114,-8.22299c-0.05779,-8.46314 -8.9463,-9.79911 -11.87851,-2.81482z"
        fill="#ffffff"></path>
    </clipPath>
  </defs>
  <g>
    <g>
      <path
        d="M13.21124,5.60625c-3.07343,-7.27391 -11.80996,-5.57688 -11.86752,2.86428c-0.0317,4.63769 4.16016,6.37099 6.95137,8.22409c2.7063,1.79814 4.63257,4.25575 4.93435,5.3043c0.25841,-1.02712 2.40383,-3.55617 4.90917,-5.35486c2.73926,-1.96851 6.98296,-3.58694 6.95114,-8.22299c-0.05779,-8.46314 -8.9463,-9.79911 -11.87851,-2.81482z"
        fill="#000000" fill-opacity="1"></path>
      <path
        d="M13.21124,5.60625c-3.07343,-7.27391 -11.80996,-5.57688 -11.86752,2.86428c-0.0317,4.63769 4.16016,6.37099 6.95137,8.22409c2.7063,1.79814 4.63257,4.25575 4.93435,5.3043c0.25841,-1.02712 2.40383,-3.55617 4.90917,-5.35486c2.73926,-1.96851 6.98296,-3.58694 6.95114,-8.22299c-0.05779,-8.46314 -8.9463,-9.79911 -11.87851,-2.81482z"
        fill-opacity="0" fill="#ffffff" stroke-linejoin="round" stroke-linecap="round" stroke-opacity="0.56"
        stroke="#11432e" stroke-miterlimit="20" stroke-width="2" clip-path="url(&quot;#ClipPath1031&quot;)"></path>
    </g>
  </g>
</svg>