<svg id="Layer_1" data-name="Layer 1" xmlns="http://www.w3.org/2000/svg" viewBox="0 0 16.5 18">
  <path
    d="M6,2.25h4.5V.94A.24.24,0,0,0,10.45.8a.24.24,0,0,0-.14-.05H6.19A.24.24,0,0,0,6.05.8.24.24,0,0,0,6,.94ZM14.25,3h-12V16.5a.76.76,0,0,0,.75.75H13.5a.76.76,0,0,0,.75-.75ZM6.75,5.63a.38.38,0,1,0-.75,0v9a.38.38,0,0,0,.75,0Zm3.75,0a.38.38,0,1,0-.75,0v9a.38.38,0,0,0,.75,0Zm6-3.38V3H15V16.5A1.5,1.5,0,0,1,13.5,18H3a1.5,1.5,0,0,1-1.5-1.5V3H0V2.25H5.25V.75A.76.76,0,0,1,6,0h4.5a.76.76,0,0,1,.75.75v1.5Z" />
</svg>