<svg id="Layer_1" data-name="Layer 1" xmlns="http://www.w3.org/2000/svg" viewBox="0 0 371.84 78.85">
  <defs>
    <style>
      .cls-1 {
        fill: #11432e;
      }
    </style>
  </defs>
  <title>Logo_gora_Hedo</title>
  <g>
    <g>
      <g>
        <path class="cls-1" d="M239.08,3.52v18c0,1.8.26,2.21,3.1,2.21v.62h-8V23.7c2.81,0,3.08-.41,3.08-2.21V12.24h-9.23v9.25c0,1.8.24,2.21,3.08,2.21v.62h-8V23.7c2.84,0,3.07-.41,3.07-2.21v-18c0-1.81-.23-2.22-3.07-2.22V.68h8V1.3c-2.84,0-3.08.41-3.08,2.22v7.71h9.23V3.52c0-1.81-.27-2.22-3.08-2.22V.68h8V1.3C239.34,1.3,239.08,1.71,239.08,3.52Z"/>
        <path class="cls-1" d="M242.42,12.5c0-6.83,3.22-12.41,8.63-12.41s8.63,5.58,8.63,12.41-3.19,12.42-8.63,12.42S242.42,19.33,242.42,12.5Zm15.22-.59c-.59-6.68-3.52-11.2-7.6-10.85s-6.2,5.32-5.61,12,3.52,11.18,7.62,10.82S258.23,18.62,257.64,11.91Z"/>
        <path class="cls-1" d="M301.88,18.24c-1.3,4.52-1.86,5.08-3.66,5.08h-5.79c-1.16,0-1.39-.3-1.39-1.69V12.41h4.55c1.8,0,2.19.27,2.19,3.4h.65V8h-.65c0,3.13-.39,3.4-2.19,3.4H291V1.68h6.88c1.81,0,2.25.42,2.66,4.23l.62-.06-.5-4.58-.06-.59H279.51L272.45,21.4h-.09L265.41.68h-5.49V1.3c2.83,0,3.07.41,3.07,2.22v18c0,1.8-.24,2.21-3.07,2.21v.62h7.15v-.65c-2.84,0-3.08-.38-3.08-2.18l-.06-18.8H264L271.44,25h.89L280,2.39h.09v19.1c0,1.8-.26,2.21-3.1,2.21v.62h23.79l.15-.53,1.6-5.38Zm-12.67,3.25c0,1.78-1,2.2-3.77,2.21s-3.56-.43-3.56-2.21v-18c0-1.79.83-2.21,3.56-2.22s3.77.43,3.77,2.22Z"/>
      </g>
      <g>
        <path class="cls-1" d="M107.36,23.7c2.84,0,3.08-.41,3.08-2.21v-18c0-1.81-.24-2.22-3.08-2.22V.68h8.07c6.65,0,11.29,4.34,11.29,11.82s-4.84,11.82-11.29,11.82h-8.07Zm17.38-11.2c0-6.53-3.6-10.82-9.31-10.82a7.59,7.59,0,0,0-3.16.54V22.79a7.77,7.77,0,0,0,3.16.53C121.14,23.32,124.74,19,124.74,12.5Z"/>
        <path class="cls-1" d="M129,12.5C129,5.67,132.25.09,137.66.09s8.63,5.58,8.63,12.41-3.19,12.42-8.63,12.42S129,19.33,129,12.5Zm15.22-.59c-.59-6.68-3.52-11.2-7.6-10.85s-6.2,5.32-5.61,12,3.51,11.18,7.62,10.82S144.84,18.62,144.25,11.91Z"/>
        <path class="cls-1" d="M178,15.93h.62c0,4.94,2.78,8,5.77,8a4,4,0,0,0,4.22-4.34c0-2.87-2.89-5-5.94-7.63-3.19-2.81-4.7-4.17-4.7-7,0-3.08,2.28-4.88,5.35-4.88,3.22,0,4.38,2.25,5,2.25.26,0,.38-.18.38-1.69h.65V7.51h-.65c0-3.73-2.25-6.42-5.29-6.42-2.69,0-3.78,1.75-3.78,3.43,0,2.63,2.66,4.44,4.82,6.36,3.9,3.45,5.82,4.84,5.82,8.48a5.45,5.45,0,0,1-5.62,5.56c-3.54,0-4.55-2.31-5.41-2.31-.47,0-.62.44-.62,1.74H178Z"/>
        <path class="cls-1" d="M203.86,21.4,210.93.68h5.44V1.3c-2.81,0-3.08.41-3.08,2.22v18c0,1.8.27,2.21,3.08,2.21v.62h-8V23.7c2.83,0,3.1-.41,3.1-2.21V2.39h-.09L203.75,25h-.89L195.44,2.69h-.09l.06,18.8c0,1.8.24,2.21,3.07,2.18v.65h-7.15V23.7c2.84,0,3.08-.41,3.08-2.21v-18c0-1.81-.24-2.22-3.08-2.22V.68h5.5l6.94,20.72Z"/>
        <path class="cls-1" d="M106.47,18.22c-1.3,4.52-1.86,5.09-3.66,5.09H97c-1.16,0-1.39-.3-1.39-1.69V12.4h4.55c1.8,0,2.19.26,2.19,3.4H103V8h-.65c0,3.13-.39,3.39-2.19,3.39H95.63V1.67h6.88c1.81,0,2.25.41,2.66,4.23l.62-.06-.5-4.58-.06-.59H81.56v.62c2.81,0,3.07.41,3.07,2.21v7.72H75.41V3.5c0-1.8.24-2.21,3.08-2.21V.67h-8v.62c2.83,0,3.07.41,3.07,2.21v18c0,1.81-.24,2.22-3.07,2.22v.62h8v-.62c-2.84,0-3.08-.41-3.08-2.22V12.22h9.22v9.25c0,1.81-.26,2.22-3.07,2.22v.62h23.79l.15-.53,1.6-5.38ZM93.81,5.86V21.47c0,1.81-.88,2.22-3.69,2.22s-3.69-.41-3.69-2.22V3.5c0-1.8.88-2.21,3.69-2.21s3.69.41,3.69,2.21Z"/>
        <path class="cls-1" d="M163.79,0h-3.57V.62c2.8,0,3.07.41,3.07,2.22V20.25h-.09L150.73,0h-4.2V.62c1.51,0,2.25.18,3.08,1.27V20.81c0,1.8-.24,2.21-3.08,2.21v.62h7.15V23c-2.8,0-3.07-.41-3.07-2.21V3.49l12.8,20.83h.75l.13-.21V20.25h0V2.84c0-1.81.27-2.22,3.07-2.22V0Z"/>
        <rect class="cls-1" x="163.53" y="22.51" width="0.76" height="1.81"/>
        <path class="cls-1" d="M172.25,4.08V2.37c.07-1.41.52-1.75,3.07-1.75V0h-8V.62c2.49,0,3,.33,3.06,1.65V4.08h0V20.25h0V22c-.07,1.41-.52,1.75-3.07,1.75v.62h8V23.7c-2.49,0-3-.32-3.06-1.64V20.25h0V4.08Z"/>
      </g>
    </g>
    <g>
      <g>
        <path class="cls-1" d="M291.8,52.36c.39,0,.51.16.35.47a4.07,4.07,0,0,1-.51.74,6,6,0,0,1-2,.92,3.7,3.7,0,0,1-2.16-.11c-.41-.16-.69-.16-.88,0a3.18,3.18,0,0,0-.64.82,17.79,17.79,0,0,0-1,1.63,17.11,17.11,0,0,1-1.27,1.91,6.94,6.94,0,0,1-1.56,1.45,1.78,1.78,0,0,1-1.77.11,2,2,0,0,1-1.15-1.58,6.41,6.41,0,0,1,0-2.14,13.56,13.56,0,0,1,.46-1.88c.18-.55.23-.8.16-.76a7,7,0,0,0-2.09,1.77c-.78.89-1.54,1.79-2.29,2.71a29.26,29.26,0,0,1-2.12,2.43c-.67.65-1.2.93-1.59.76a1.31,1.31,0,0,1-.71-1.23,9.14,9.14,0,0,1,.19-2.21,22.81,22.81,0,0,1,.59-2.3l.53-1.61c.21-.57.44-1.15.67-1.77s.48-1.13.73-1.77v-.21a3.34,3.34,0,0,1,.83-1.26A2,2,0,0,1,276,49a1.14,1.14,0,0,1,.71.25.49.49,0,0,1,.09.48,2.5,2.5,0,0,1-.3.64q-.21.32-.39.63a5.21,5.21,0,0,1-.43.85c-.28.53-.61,1.14-1,1.77s-.72,1.46-1.1,2.23-.63,1.46-.86,2A2.52,2.52,0,0,0,272.5,59c0,.19.28.1.76-.3s1.13-.9,1.67-1.39,1-1.11,1.55-1.62,1.44-1.39,2.25-2.06A9.44,9.44,0,0,1,281.32,52a1.22,1.22,0,0,1,.92,0,.62.62,0,0,1,.37.8h0a4,4,0,0,1-.41,1c-.21.48-.33.89-.46,1.17a9.78,9.78,0,0,0-.32,1,10,10,0,0,0-.32,1.44,4.79,4.79,0,0,0,0,1.31.61.61,0,0,0,.64.57h0c.44,0,.86-.38,1.31-1s.86-1.37,1.31-2.13A22.15,22.15,0,0,1,285.73,54a1.75,1.75,0,0,1,1.43-1,2.59,2.59,0,0,1,.65.31,1.26,1.26,0,0,0,.87.13,2.76,2.76,0,0,0,1-.23l.9-.43.71-.39A1.28,1.28,0,0,1,291.8,52.36Z"/>
        <path class="cls-1" d="M322.16,37.58a2.59,2.59,0,0,1,0,1.65,9,9,0,0,1-.76,2,16.2,16.2,0,0,1-1.33,2.23c-.51.76-1.11,1.56-1.77,2.39-1.38,1.63-2.87,3.2-4.42,4.74A57.89,57.89,0,0,1,309,54.86a1.44,1.44,0,0,0-.52.46,4.39,4.39,0,0,1-.24.64c-.62,1.36-1.23,2.73-1.78,4.09s-1.18,2.72-1.77,4.11l-2.33,5.64c-.2.36-.25.55-.2.55s.2.14.41.43a.32.32,0,0,1,0,.47l0,0a2.05,2.05,0,0,1-.41.37l-.46.29a.71.71,0,0,1-.46-.13,1.12,1.12,0,0,1-.25-.42,3,3,0,0,1,0-.6q0-.33,0-.66a2.35,2.35,0,0,0,0-.53,24.84,24.84,0,0,1,1-4c.48-1.43.92-2.73,1.36-3.88.21-.62.43-1.2.66-1.77s.44-1.13.7-1.77l.16-.53a1.45,1.45,0,0,0-.49.18,2.41,2.41,0,0,0-.48.3l-1,.35a4,4,0,0,1-1,.22,2.75,2.75,0,0,1-1-.11,1.16,1.16,0,0,1-.73-.62,2.18,2.18,0,0,1-.09-1.68,7.82,7.82,0,0,1,.69-1.63,7.43,7.43,0,0,1,.83-1.31,9.24,9.24,0,0,1,1.17-1.17,6.84,6.84,0,0,1,1.38-.81,3.14,3.14,0,0,1,1.51-.23,1.57,1.57,0,0,1,1.29.72,1.12,1.12,0,0,1-.21,1.38,1.07,1.07,0,0,1-.43.36c-.16,0-.3,0-.44-.3a.55.55,0,0,1,0-.36v-.35a.32.32,0,0,0,0-.27.33.33,0,0,0-.23-.1,1.37,1.37,0,0,0-1,.62c-.35.42-.6.77-.8,1.06s-.65.92-1,1.47a15.19,15.19,0,0,0-.9,1.57c-.21.46-.25.71,0,.73a2.7,2.7,0,0,0,.85-.13l1.43-.65a9.16,9.16,0,0,0,1.33-.76,2.11,2.11,0,0,0,.44-.71c.15-.34.25-.58.34-.76,1-2.23,2-4.43,3.22-6.69a60.5,60.5,0,0,1,3.9-6.41l1.29-1.77a14.07,14.07,0,0,1,1.77-1.93,9.33,9.33,0,0,1,2-1.45,2.67,2.67,0,0,1,2-.36A2.19,2.19,0,0,1,322.16,37.58Zm-1.63,3.21a4.6,4.6,0,0,0,.66-2.87,1.08,1.08,0,0,0-1-.76,2,2,0,0,0-1.77.9,18.35,18.35,0,0,0-2,2.46c-.65.94-1.23,1.89-1.77,2.83s-.88,1.6-1.11,1.95c-.67,1.28-1.33,2.53-1.91,3.77l-1.77,3.79c-.11.25-.15.35-.11.32l.32-.32a23.43,23.43,0,0,0,2-1.77c.64-.64,1.26-1.22,1.88-1.77s1.27-1.33,1.89-2,1.24-1.4,1.86-2.13A22.24,22.24,0,0,0,320.53,40.79Z"/>
        <path class="cls-1" d="M327.47,52.26c.41,0,.59.16.55.37a.5.5,0,0,1-.39.44c-.39.18-.88.41-1.47.71a16.25,16.25,0,0,1-1.77.76,11,11,0,0,1-1.77.48,2.47,2.47,0,0,1-1.47-.11c-.28.45-.6.89-.92,1.37a11.21,11.21,0,0,1-1.08,1.31,8.2,8.2,0,0,1-1.31,1,4.08,4.08,0,0,1-1.52.64,2.48,2.48,0,0,1-1.63-.23,1.9,1.9,0,0,1-1.13-1.4,4.47,4.47,0,0,1,0-2.18,8.15,8.15,0,0,1,1-2.37,8.47,8.47,0,0,1,1.68-2,5.36,5.36,0,0,1,2.09-1.15,3,3,0,0,1,2.21.3,2.16,2.16,0,0,1,.78.81,3.69,3.69,0,0,1,.37,1.12,2.86,2.86,0,0,1,0,1,.72.72,0,0,1-.39.55,3.76,3.76,0,0,0,.55.32,2.16,2.16,0,0,0,1.42,0,10.75,10.75,0,0,0,1.41-.68c.46-.28.94-.53,1.4-.76A2.5,2.5,0,0,1,327.47,52.26Zm-6.83,1.24a2.15,2.15,0,0,1,0-.62,5.61,5.61,0,0,0,0-.82,1.69,1.69,0,0,0-.3-.67.83.83,0,0,0-.71-.28,1.56,1.56,0,0,0-.87.55A15.5,15.5,0,0,0,317.65,53a13,13,0,0,0-1.08,1.77,11.46,11.46,0,0,0-.82,1.69,3.15,3.15,0,0,0-.28,1.29c0,.32.19.48.58.48a2.16,2.16,0,0,0,1.05-.3,5.69,5.69,0,0,0,.85-.52,8.38,8.38,0,0,0,1.52-1.57,15.32,15.32,0,0,0,.94-2.06Z"/>
        <path class="cls-1" d="M340.63,54.1h0a2.21,2.21,0,0,1,.31,1.33v1.31a.86.86,0,0,0,.41.79c.27.15.85,0,1.77-.28a12.42,12.42,0,0,0,1.77-.83c.69-.39,1.37-.82,2-1.28l2-1.41c.62-.48,1.17-.9,1.65-1.31a1,1,0,0,1,.55-.25c.18,0,.32.11.42.35a.47.47,0,0,1-.12.61,4.92,4.92,0,0,0-.58.44l-1.23,1a14.69,14.69,0,0,1-1.27.92l-1.52,1c-.57.37-1.19.73-1.77,1.06a18.16,18.16,0,0,1-1.92.82,3.8,3.8,0,0,1-1.77.21,2.82,2.82,0,0,1-1.87-.74,2.26,2.26,0,0,1-.25-2c.14-.56.16-.92,0-1s-.48,0-1,.49a3.9,3.9,0,0,0-.85.82c-.27.32-.55.64-.84.94a5.66,5.66,0,0,1-.9.79,1.58,1.58,0,0,1-1,.32.89.89,0,0,1-.92-.46,2.74,2.74,0,0,1-.24-1.06v-1.1c0-.33,0-.57-.13-.64s-.37,0-.69.16a9.07,9.07,0,0,0-.94.69,9,9,0,0,0-.9.84c-.27.3-.46.49-.57.6-.47.48-.9.95-1.31,1.43s-.81,1-1.25,1.51a6.91,6.91,0,0,1-1,.81,1.66,1.66,0,0,1-1,.25c-.35,0-.51-.28-.43-.8s.18-.76.32-1.33.27-1,.37-1.38.18-.55.31-1l.4-1.4c.14-.48.32-1,.5-1.47a10.15,10.15,0,0,1,.55-1.27,1.73,1.73,0,0,1,.94-.94,2,2,0,0,1,1.11-.18.88.88,0,0,1,.71.53,1.16,1.16,0,0,1-.16,1.08c-.18.29-.44.75-.8,1.37s-.67,1.22-1,1.77A13.07,13.07,0,0,0,327.7,58c-.15.32-.29.65-.41,1,.52-.53.91-1,1.21-1.33l.81-1,.48-.57a11.46,11.46,0,0,1,1-1A7.24,7.24,0,0,1,332.07,54a3.68,3.68,0,0,1,1.42-.58,1.32,1.32,0,0,1,1.24.55,1.75,1.75,0,0,1,.35,1.08v1.11a.92.92,0,0,0,.22.59c.1,0,.39-.16.81-.66s.78-.94,1.12-1.31a7.32,7.32,0,0,1,1.32-1,2.41,2.41,0,0,1,1.05-.24A1.38,1.38,0,0,1,340.63,54.1Z"/>
        <path class="cls-1" d="M371.8,52.58a.52.52,0,0,1-.16.6l-.55.44-1.22,1c-.42.31-.85.63-1.27.92l-1.77,1.22a12.24,12.24,0,0,1-2.13,1.17,8.92,8.92,0,0,1-2.21.65,3.3,3.3,0,0,1-2.09-.34,1.74,1.74,0,0,1-1-1.11,4,4,0,0,1-.11-1.24,2.12,2.12,0,0,1,.11-.9c.11-.23,0-.22-.27,0l-1.77,1.57c-.7.66-1.45,1.3-2.24,1.91A16.7,16.7,0,0,1,352.74,60a3.29,3.29,0,0,1-2.13.37,1.8,1.8,0,0,1-1-.6l-.11-.16a2.65,2.65,0,0,1-.46-1.49,8.1,8.1,0,0,1,.16-1.77,15.5,15.5,0,0,1,.5-1.77c.19-.6.39-1.12.56-1.54a1.53,1.53,0,0,1,1.77-.92.83.83,0,0,1,.5.18.43.43,0,0,1,0,.35,1.26,1.26,0,0,1-.16.46l-.25.46a6.49,6.49,0,0,1-.51,1.36A18.06,18.06,0,0,0,351,57a5.4,5.4,0,0,0-.12,1.88c0,.51.39.7,1,.56a5.86,5.86,0,0,0,2-1.1,25.61,25.61,0,0,0,2.34-1.94c.77-.73,1.52-1.46,2.24-2.18s1.35-1.29,1.77-1.77a2.59,2.59,0,0,1,.93-.41,1.22,1.22,0,0,1,1,.14,1.38,1.38,0,0,1,0,1.22,9.63,9.63,0,0,0-.55,1.23,8.12,8.12,0,0,0-.41,1.38,2,2,0,0,0,0,1.08.86.86,0,0,0,.66.53,2.64,2.64,0,0,0,1.45-.34,15.4,15.4,0,0,0,2-1,17.61,17.61,0,0,0,1.9-1.17c1.2-.83,2.35-1.77,3.54-2.66a1,1,0,0,1,.53-.25C371.56,52.21,371.7,52.33,371.8,52.58Z"/>
        <path class="cls-1" d="M369.17,58.4a1.34,1.34,0,0,1,1-.64,1.09,1.09,0,0,1,1,1.31,1.34,1.34,0,0,1-.69,1,1,1,0,0,1-.69.18.9.9,0,0,1-.93-.87h0A1.49,1.49,0,0,1,369.17,58.4Z"/>
      </g>
      <g>
        <path class="cls-1" d="M34.74,51.36h.46l.53.14a1,1,0,0,1,.39.21.35.35,0,0,1,0,.41.6.6,0,0,1-.52.28c-.26,0-.1.18-.44.16s-1.15-.17-1.49-.21a4.09,4.09,0,0,0-.7,0,61.31,61.31,0,0,0-6.36.12,43.44,43.44,0,0,0-6.23.87l-1,.13-1,.21c.18,1.17.37,2.44.57,3.86A34.69,34.69,0,0,1,19.39,62a43.73,43.73,0,0,1,0,4.58,19.94,19.94,0,0,1-.69,4.34,12.26,12.26,0,0,1-1.77,3.7,8.32,8.32,0,0,1-2.86,2.64,10.45,10.45,0,0,1-2.37,1,16.39,16.39,0,0,1-2.78.51,10.62,10.62,0,0,1-2.76,0A8.06,8.06,0,0,1,3.72,78a7,7,0,0,1-2-2A9.2,9.2,0,0,1,0,70.66a12.31,12.31,0,0,1,.32-2.84,15.66,15.66,0,0,1,1.77-3.91,19.67,19.67,0,0,1,2.69-3.54,24.45,24.45,0,0,1,3.38-3,24.12,24.12,0,0,1,3.49-2.16l.16-.11c.69-.37,1.38-.67,2-1s1.4-.53,2.13-.78q-.44-2.89-.78-5.73c-.23-1.9-.39-3.7-.44-5.4A26.74,26.74,0,0,1,15,37.53a9.84,9.84,0,0,1,1.28-3.75,6.61,6.61,0,0,1,2.65-2.46,9.57,9.57,0,0,1,4.38-.87,8.47,8.47,0,0,1,2,.21,8.58,8.58,0,0,1,4.4,2.23,6.64,6.64,0,0,1,1.36,2,5.78,5.78,0,0,1,.49,2.39,4.12,4.12,0,0,1-.17,1.26,9.63,9.63,0,0,1-.68,1.93,9.46,9.46,0,0,1-1.11,1.89,9.11,9.11,0,0,1-1.47,1.63,5.74,5.74,0,0,1-1.68,1.12c-.76.37-1.26.42-1.52.19a.93.93,0,0,1-.25-.92,2.17,2.17,0,0,1,.42-1c.23-.32.46-.39.68-.24a.44.44,0,0,1,.19.37.61.61,0,0,0,.19.4c.11.09.29,0,.55,0a7.34,7.34,0,0,0,1.19-1,9.29,9.29,0,0,0,2.55-4.44,1.16,1.16,0,0,1,.09-.55c.09-.18,0-.36,0-.55A4.6,4.6,0,0,0,29,33.71a7,7,0,0,0-3.86-2,6.19,6.19,0,0,0-1.77-.23,5.38,5.38,0,0,0-4.6,1.77A8.56,8.56,0,0,0,17,38a29.92,29.92,0,0,0,.19,6.82c.32,2.57.68,5.31,1.08,8l1.9-.44a45.47,45.47,0,0,1,7.26-.92A66.44,66.44,0,0,1,34.74,51.36Zm-23,25.69a7.16,7.16,0,0,0,3.54-2.66,11.06,11.06,0,0,0,1.68-4,19.36,19.36,0,0,0,.37-4.62c0-1.59-.12-3.08-.24-4.44s-.23-2.3-.37-3.44-.31-2.24-.5-3.41a28.65,28.65,0,0,0-7.75,4,20.16,20.16,0,0,0-5.88,6.48A13.63,13.63,0,0,0,1.29,68a10.55,10.55,0,0,0-.37,3.26,8,8,0,0,0,.76,3A6.47,6.47,0,0,0,4,76.78a7.25,7.25,0,0,0,1.77.75,8.87,8.87,0,0,0,2,.23,11.49,11.49,0,0,0,2-.18,11.56,11.56,0,0,0,1.89-.53Z"/>
        <path class="cls-1" d="M50.42,52.77a.69.69,0,0,1-.14.45,3.08,3.08,0,0,1-.51.51,7.48,7.48,0,0,1-.66.43,2,2,0,0,0-.42.3l-1.22.81c-.61.41-1.28.83-2,1.31s-1.58.92-2.43,1.35a16.21,16.21,0,0,1-2.35,1,3.92,3.92,0,0,1-1.86.16,1.17,1.17,0,0,1-.87-1.15v-.22a3.72,3.72,0,0,1,.34-1.64,7.69,7.69,0,0,1,.78-1.4c.32-.44.66-.87,1-1.28a11.78,11.78,0,0,0,1.07-1.27V52l-.23.16-.57.45a15.39,15.39,0,0,1-2.09.88,3,3,0,0,1-2.71,0l-.16-.18a1.11,1.11,0,0,1-.26-.52.52.52,0,0,1,.1-.56,3,3,0,0,1,.57-.27c.27-.1.41-.14.57.27a.78.78,0,0,0,.55.39,5,5,0,0,0,1.38-.21,9.62,9.62,0,0,0,1.77-.78c.42-.29.67-.78,1.09-1a8,8,0,0,1,1.19-.64,1.41,1.41,0,0,1,1,0,1.16,1.16,0,0,1,.25.64,3.32,3.32,0,0,1,0,.89,3.87,3.87,0,0,1-.29.95,4.54,4.54,0,0,1-.3.68,10.93,10.93,0,0,1-1.43,2A17.65,17.65,0,0,0,40,57a1.58,1.58,0,0,0-.3.72c0,.22.2.27.68.2a6.91,6.91,0,0,0,1.93-.62c.74-.35,1.36-.66,1.87-1,.83-.49,1.61-1,2.36-1.54l2.37-1.66a5.09,5.09,0,0,1,.78-.48.52.52,0,0,1,.72.09Z"/>
        <path class="cls-1" d="M61.66,52.72c.18.21.2.39,0,.55l-.53.43a20,20,0,0,1-2.49,1.77c-.87.54-1.77,1.08-2.71,1.57l-1.51.76a11.51,11.51,0,0,1-1.77.76,8.23,8.23,0,0,1-1.77.46,3.15,3.15,0,0,1-1.61-.12A2,2,0,0,1,48.19,58,2.83,2.83,0,0,1,48,56.63a5.24,5.24,0,0,1,.32-1.45,12.19,12.19,0,0,1,.55-1.29,11.15,11.15,0,0,1,1.08-1.65,9.37,9.37,0,0,1,1.5-1.52,6.26,6.26,0,0,1,1.77-1.06,4.54,4.54,0,0,1,1.93-.32,1.62,1.62,0,0,1,1.54.83,2.15,2.15,0,0,1,.14,1.77,6,6,0,0,1-.76,1.17,4.92,4.92,0,0,1-.92,1c-.34.21-.65.1-1-.34-.13-.14-.16-.26-.13-.35a.5.5,0,0,1,.2-.23.86.86,0,0,1,.33-.2l.36-.19a3.33,3.33,0,0,0,.51-.55,3.6,3.6,0,0,0,.43-.52,1.24,1.24,0,0,0,0-.85.69.69,0,0,0-.71-.4,2.83,2.83,0,0,0-1.33.71,8.49,8.49,0,0,0-1.4,1.41c-.42.53-.83,1.1-1.22,1.65a12.28,12.28,0,0,0-.83,1.4c-.11.21-.23.48-.36.78a8.63,8.63,0,0,0-.28.86.82.82,0,0,0,.14.68c.14.19.45.24.87.17a4.84,4.84,0,0,0,1.12-.28l1.27-.48c.44-.19.87-.37,1.28-.58a10.81,10.81,0,0,0,1.06-.57,26.63,26.63,0,0,0,2.87-1.57,17.62,17.62,0,0,0,2.49-1.9.56.56,0,0,1,.78-.06Z"/>
        <path class="cls-1" d="M73.61,52.77a.69.69,0,0,1-.14.45,3.08,3.08,0,0,1-.51.51,5.74,5.74,0,0,1-.66.43,2,2,0,0,0-.42.3l-1.15.78c-.6.4-1.28.83-2,1.31s-1.57.92-2.42,1.34a14.74,14.74,0,0,1-2.36,1,3.79,3.79,0,0,1-1.77.16,1.16,1.16,0,0,1-.87-1.15v-.18a3.86,3.86,0,0,1,.34-1.64,8.33,8.33,0,0,1,.78-1.4c.32-.43.65-.85,1-1.28a13,13,0,0,0,1.06-1.27V52l-.21.16-.3.25a.62.62,0,0,1-.23.14c-.43.29-.91.55-1.4.82a2.19,2.19,0,0,1-1.63.1h-.25l-.11-.16a1.18,1.18,0,0,1-.32-.54.55.55,0,0,1,.11-.56,3,3,0,0,1,.57-.27.42.42,0,0,1,.55.18.94.94,0,0,1,0,.09.29.29,0,0,0,.32.3,1.86,1.86,0,0,0,.6-.25,10,10,0,0,0,1-.65l1.26-.84a9.73,9.73,0,0,1,1.13-.65,1.51,1.51,0,0,1,.8-.2.7.7,0,0,1,.37.59,2.6,2.6,0,0,1,0,.88,4.54,4.54,0,0,1-.26,1l-.3.67a11.29,11.29,0,0,1-1.46,2,22.91,22.91,0,0,0-1.59,1.95,1.7,1.7,0,0,0-.3.72c0,.21.21.27.67.2a7.64,7.64,0,0,0,1.9-.71c.74-.36,1.36-.66,1.87-1,.84-.49,1.63-1,2.38-1.54S71.19,53.57,72,53a6.28,6.28,0,0,1,.78-.48.51.51,0,0,1,.81.26Z"/>
        <path class="cls-1" d="M84.68,52.72a.49.49,0,0,1,0,.41,1,1,0,0,1-.28.3,8.42,8.42,0,0,0-1.42.92l-1.77,1.17c-.64.41-1.33.8-2,1.17a14.33,14.33,0,0,1-2.1.88,5.27,5.27,0,0,1-2,.3A3.51,3.51,0,0,1,72.94,57a2.29,2.29,0,0,1-.76-1.95,5.32,5.32,0,0,1,.6-2.14,6.73,6.73,0,0,1,1.31-1.77A4.76,4.76,0,0,1,75.86,50a4.39,4.39,0,0,1,2.09-.3,1.48,1.48,0,0,1,1.1.49,1.17,1.17,0,0,1,.19.89,3.21,3.21,0,0,1-.4,1,6.76,6.76,0,0,1-.71.89,4.41,4.41,0,0,1-1.35.85,3,3,0,0,1-1.54.19,1.09,1.09,0,0,0-.62,0,2,2,0,0,0-.24.62,2.86,2.86,0,0,0-.11,1.56c.11.48.53.67,1.29.57a9.64,9.64,0,0,0,3.68-1.33c1.17-.71,2.29-1.4,3.33-2.09l.76-.55.71-.44C84.31,52.28,84.54,52.39,84.68,52.72Zm-9.56.16c-.07.11-.07.16,0,.16h.26a4.34,4.34,0,0,0,1.53-.48,3,3,0,0,0,1.15-1.15.57.57,0,0,0,0-.48.35.35,0,0,0-.3-.19,1.19,1.19,0,0,0-.46,0l-.46.19a4.3,4.3,0,0,0-1,.84A7.2,7.2,0,0,0,75.12,52.88Z"/>
        <path class="cls-1" d="M85.71,49.3a4.51,4.51,0,0,1,2.37-1.45,2.34,2.34,0,0,1,1.77.3,1.39,1.39,0,0,1,.53,1.42,3.13,3.13,0,0,1-1.56,1.77,14,14,0,0,1-1.33.82L86.11,53a3.28,3.28,0,0,0,.66.87,4.46,4.46,0,0,1,1.91,3A4,4,0,0,1,87.41,60,6.22,6.22,0,0,1,86,61.2a6.89,6.89,0,0,1-1.68.82,5.58,5.58,0,0,1-1.77.26,3.37,3.37,0,0,1-1.77-.51,1.84,1.84,0,0,1-.87-1,2.82,2.82,0,0,1-.14-1.26,3.24,3.24,0,0,1,.34-1.08c.16-.31.35-.51.57-.54a.67.67,0,0,1,.56.14,1.23,1.23,0,0,1,.39.49,1.4,1.4,0,0,1,.13.57c0,.18,0,.28-.11.32s-.11,0-.25,0a.59.59,0,0,0-.37,0,.49.49,0,0,0-.27.26,1.46,1.46,0,0,0,.13.64,1.17,1.17,0,0,0,.6.64,2.18,2.18,0,0,0,1,.25,3.51,3.51,0,0,0,1.07-.11,7.31,7.31,0,0,0,.9-.3,3.62,3.62,0,0,0,1.33-1.06,3.31,3.31,0,0,0,.65-1.44,3.22,3.22,0,0,0-.12-1.57,4,4,0,0,0-.89-1.53l-.09.08a3,3,0,0,1-1.22-3A5.73,5.73,0,0,1,85.71,49.3ZM86,51.91a6.19,6.19,0,0,0,.89-.45,12,12,0,0,0,1.4-.86,4.43,4.43,0,0,0,1-.94c.21-.32.14-.55-.23-.69a1.57,1.57,0,0,0-1.13,0,2.26,2.26,0,0,0-1,.65,6.77,6.77,0,0,0-.76,1.08A1.76,1.76,0,0,0,85.92,52Z"/>
        <path class="cls-1" d="M104.37,52.72c.19.21.19.39,0,.55l-.52.43a20,20,0,0,1-2.49,1.77c-.89.54-1.77,1.08-2.73,1.57l-1.49.76a11.51,11.51,0,0,1-1.77.76A8.23,8.23,0,0,1,93.6,59,3.07,3.07,0,0,1,92,58.9a2,2,0,0,1-1.1-.92,2.83,2.83,0,0,1-.21-1.35,4.8,4.8,0,0,1,.39-1.39,12.21,12.21,0,0,1,.53-1.3,12.69,12.69,0,0,1,1.1-1.64,8.93,8.93,0,0,1,1.48-1.53A6.93,6.93,0,0,1,96,49.71a4.75,4.75,0,0,1,1.93-.32,1.66,1.66,0,0,1,1.56.84A2.18,2.18,0,0,1,99.59,52a5.32,5.32,0,0,1-.77,1.16,4.92,4.92,0,0,1-.92,1c-.31.21-.65.11-1-.34a.41.41,0,0,1-.11-.35.45.45,0,0,1,.2-.23,1,1,0,0,1,.32-.2l.35-.19a2.71,2.71,0,0,0,.52-.55,3.82,3.82,0,0,0,.4-.64,1.14,1.14,0,0,0,0-.85.66.66,0,0,0-.71-.4,2.94,2.94,0,0,0-1.32.71,7.68,7.68,0,0,0-1.38,1.41c-.45.53-.85,1.1-1.23,1.65a11.59,11.59,0,0,0-.85,1.4c-.1.21-.23.47-.35.78a5.35,5.35,0,0,0-.27.86.83.83,0,0,0,.13.68c.16.19.44.24.88.17a5.4,5.4,0,0,0,1.12-.28l1.27-.48c.43-.19.85-.37,1.28-.58s.76-.39,1.06-.57A23.39,23.39,0,0,0,101,54.55a17.71,17.71,0,0,0,2.5-1.9C103.85,52.39,104.15,52.39,104.37,52.72Z"/>
        <path class="cls-1" d="M105,57.87a4.5,4.5,0,0,0,1.36-.32,10.25,10.25,0,0,0,1.77-.84,19.42,19.42,0,0,0,2-1.28c.67-.46,1.33-.94,2-1.4s1.19-.92,1.65-1.31a1.11,1.11,0,0,1,.51-.25c.18,0,.32.11.46.36a.5.5,0,0,1-.16.6l-.53.42c-.44.34-.86.66-1.25,1a15.11,15.11,0,0,1-1.26.92l-1.52,1a15.93,15.93,0,0,1-1.77,1.06,12.4,12.4,0,0,1-1.92.81,3.68,3.68,0,0,1-1.77.23,2.76,2.76,0,0,1-1.77-.76,2.29,2.29,0,0,1-.56-1.41,4.45,4.45,0,0,1,.25-1.77,13.43,13.43,0,0,1,.67-1.77,1.61,1.61,0,0,1,1.77-.92.73.73,0,0,1,.49.19.43.43,0,0,1,0,.35,1.14,1.14,0,0,1-.16.47l-.24.46a4.24,4.24,0,0,1-.36.92,10.61,10.61,0,0,0-.4,1.36,3.91,3.91,0,0,0-.11,1.27.6.6,0,0,0,.58.62H105Zm2.12-9.56a.9.9,0,0,1,.66.25c.14.16,0,.43-.55.8a8.26,8.26,0,0,0-1.08.88,1.13,1.13,0,0,1-.83.3c-.29,0-.37-.21-.29-.62a2.58,2.58,0,0,1,.52-1.11,1.12,1.12,0,0,1,.72-.46Z"/>
        <path class="cls-1" d="M125.61,52.72a.49.49,0,0,1,0,.41,1.07,1.07,0,0,1-.3.3,9.31,9.31,0,0,0-1.42.92l-1.77,1.17c-.65.41-1.32.8-2,1.17a16.46,16.46,0,0,1-2.13.88,5.19,5.19,0,0,1-2,.3,3.51,3.51,0,0,1-2-.86,2.32,2.32,0,0,1-.74-1.95,5.29,5.29,0,0,1,.58-2.14,7.17,7.17,0,0,1,1.32-1.77A5,5,0,0,1,116.87,50a4.35,4.35,0,0,1,2.08-.3,1.43,1.43,0,0,1,1.08.49,1.14,1.14,0,0,1,.2.89,2.83,2.83,0,0,1-.41,1,5,5,0,0,1-.71.89,4.46,4.46,0,0,1-1.32.85,3.19,3.19,0,0,1-1.56.19,1.09,1.09,0,0,0-.62,0,1.93,1.93,0,0,0-.25.62,3.06,3.06,0,0,0-.11,1.56c.11.48.55.67,1.31.57a9.89,9.89,0,0,0,3.74-1.31c1.17-.71,2.28-1.4,3.35-2.09.14-.11.39-.3.76-.55a6.2,6.2,0,0,1,.69-.44A.34.34,0,0,1,125.61,52.72Zm-9.56.16c-.07.11-.07.16,0,.16h.28a4.55,4.55,0,0,0,1.53-.48A3,3,0,0,0,119,51.41c.11-.21.14-.37,0-.48a.32.32,0,0,0-.28-.19.9.9,0,0,0-.46,0,2.34,2.34,0,0,0-.46.19,4.07,4.07,0,0,0-1,.84,7.73,7.73,0,0,0-.66,1.11Z"/>
        <path class="cls-1" d="M146.13,49.3a4.52,4.52,0,0,1,2.36-1.45,2.43,2.43,0,0,1,1.91.3,1.41,1.41,0,0,1,.51,1.42c0,.62-.6,1.22-1.54,1.77-.44.3-.88.57-1.33.82l-1.4.81a4,4,0,0,0,.66.87,4.47,4.47,0,0,1,1.93,3A4.1,4.1,0,0,1,148,60a6,6,0,0,1-1.38,1.17,6.64,6.64,0,0,1-1.77.82,5.58,5.58,0,0,1-1.77.26,3.37,3.37,0,0,1-1.77-.51,1.84,1.84,0,0,1-.87-1,2.82,2.82,0,0,1-.14-1.26,3.24,3.24,0,0,1,.34-1.08c.16-.31.34-.51.57-.54a.67.67,0,0,1,.56.14,1.11,1.11,0,0,1,.37.49,1.16,1.16,0,0,1,.15.57c0,.18,0,.28-.11.32a.36.36,0,0,1-.25,0,.59.59,0,0,0-.37,0,.48.48,0,0,0-.28.26,1.37,1.37,0,0,0,.14.64,1.08,1.08,0,0,0,.6.64,2.18,2.18,0,0,0,1,.25,3.51,3.51,0,0,0,1.07-.11,7,7,0,0,0,.88-.3,3.58,3.58,0,0,0,1.35-1.06,3.39,3.39,0,0,0,.62-1.28,3.22,3.22,0,0,0-.11-1.57,4,4,0,0,0-.89-1.53l-.17-.16a3,3,0,0,1-1.22-3A5.85,5.85,0,0,1,146.13,49.3Zm.27,2.61a6.37,6.37,0,0,0,.86-.45,10.73,10.73,0,0,0,1.42-.86,4,4,0,0,0,1-.94c.22-.32.15-.55-.22-.69a1.57,1.57,0,0,0-1.13,0,2.44,2.44,0,0,0-1,.65,8.08,8.08,0,0,0-.76,1.08,1.8,1.8,0,0,0-.27,1.26Z"/>
        <path class="cls-1" d="M183.65,52.62c.39,0,.51.14.35.46a3.35,3.35,0,0,1-.51.72,5.23,5.23,0,0,1-2,.92,3.53,3.53,0,0,1-2.18-.1.9.9,0,0,0-.87,0,3.33,3.33,0,0,0-.63.81c-.27.41-.59.94-1,1.63A16.55,16.55,0,0,1,175.55,59,6.68,6.68,0,0,1,174,60.44a1.78,1.78,0,0,1-1.77.11A2,2,0,0,1,171.08,59a5.92,5.92,0,0,1,0-2.14,11.27,11.27,0,0,1,.56-1.88c.18-.55.23-.79.16-.76A6.85,6.85,0,0,0,169.71,56c-.78.9-1.54,1.77-2.28,2.73s-1.38,1.64-2.13,2.41-1.2.95-1.59.76a1.32,1.32,0,0,1-.71-1.22,8.13,8.13,0,0,1,.2-2.2,22.76,22.76,0,0,1,.58-2.3c.25-.75.41-1.28.53-1.61s.45-1.15.68-1.77l.72-1.77v-.22a3.56,3.56,0,0,1,.85-1.25,1.92,1.92,0,0,1,1.44-.27,1.05,1.05,0,0,1,.7.23.5.5,0,0,1,0,.5,2.09,2.09,0,0,1-.3.62l-.39.65a6.71,6.71,0,0,1-.42.85c-.3.52-.62,1.14-1,1.77s-.72,1.45-1.09,2.23-.66,1.45-.87,2a2.89,2.89,0,0,0-.27,1.15c0,.2.29.09.76-.3a14.42,14.42,0,0,0,1.54-1.57c.52-.59,1-1.12,1.56-1.63s1.44-1.38,2.25-2.07a9.68,9.68,0,0,1,2.59-1.58,1.32,1.32,0,0,1,.92,0,.62.62,0,0,1,.37.78,9.68,9.68,0,0,1-.41,1.06l-.46,1.17a7.29,7.29,0,0,1-.32,1,11.72,11.72,0,0,0-.33,1.45,4,4,0,0,0,0,1.29.6.6,0,0,0,.61.59h.06a2,2,0,0,0,1.31-1c.42-.66.87-1.35,1.31-2.11a22.15,22.15,0,0,1,1.33-2.12,1.79,1.79,0,0,1,1.43-1,3.35,3.35,0,0,1,.66.32,1.35,1.35,0,0,0,.86.11,2.56,2.56,0,0,0,1-.21,7.56,7.56,0,0,0,.9-.45l.71-.37A1.19,1.19,0,0,1,183.65,52.62Z"/>
        <path class="cls-1" d="M197,52.51c.39,0,.57.12.53.37a.51.51,0,0,1-.37.44c-.41.18-.88.41-1.47.71a17.4,17.4,0,0,1-1.77.75,10.79,10.79,0,0,1-1.77.49,2.33,2.33,0,0,1-1.45-.11l-.94,1.37a9.47,9.47,0,0,1-1.08,1.29,7.07,7.07,0,0,1-1.31,1.06,4.38,4.38,0,0,1-1.5.62,2.54,2.54,0,0,1-1.65-.21,2,2,0,0,1-1.13-1.42,4.39,4.39,0,0,1,0-2.16,8.63,8.63,0,0,1,1-2.37,8,8,0,0,1,1.77-2A5.24,5.24,0,0,1,188,50.19a2.94,2.94,0,0,1,2.19.3,2.05,2.05,0,0,1,.78.82,3.13,3.13,0,0,1,.39,1.11,2.86,2.86,0,0,1,0,1,.71.71,0,0,1-.37.53,2,2,0,0,0,.53.34,2.16,2.16,0,0,0,1.42,0,9.2,9.2,0,0,0,1.41-.69l1.42-.76A2.54,2.54,0,0,1,197,52.51Zm-6.85,1.24a3.21,3.21,0,0,1,0-.62,3.81,3.81,0,0,0-.09-.82,1.41,1.41,0,0,0-.3-.67.79.79,0,0,0-.69-.28c-.23,0-.51.18-.88.55a8.73,8.73,0,0,0-1.1,1.33A18,18,0,0,0,186,55a13,13,0,0,0-.81,1.68,3.44,3.44,0,0,0-.27,1.27c0,.34.21.5.57.5a2.48,2.48,0,0,0,1.06-.3,5.5,5.5,0,0,0,.83-.52,7.8,7.8,0,0,0,1.52-1.57,15.63,15.63,0,0,0,1.1-1.9Z"/>
        <path class="cls-1" d="M207.21,53c.58-.46,1-.6,1.2-.37a.52.52,0,0,1,0,.76,4.79,4.79,0,0,1-.65.62l-1.19,1-1.24,1-.72.65-1.54,1.28c-.75.6-1.54,1.19-2.38,1.77a16.25,16.25,0,0,1-2.39,1.4,2.05,2.05,0,0,1-1.77.28,1.42,1.42,0,0,1-.72-.92,3.12,3.12,0,0,1,0-1.29,5.73,5.73,0,0,1,.42-1.29,11,11,0,0,1,.57-1.07,5,5,0,0,1,.94-1.22c.32-.3.71-.64,1.18-1s.39-.4.31-.48a1.06,1.06,0,0,0-.57-.17l-1-.16a.57.57,0,0,1-.48-.27,1.78,1.78,0,0,1,0-1.68,6.77,6.77,0,0,1,1.11-2,7,7,0,0,1,1.78-1.56,2.38,2.38,0,0,1,1.91-.32l.37.16a1.51,1.51,0,0,1,.65.76,2.07,2.07,0,0,1-.26,1.52,5.22,5.22,0,0,1-1.1,1.37c-.35.28-.83.62-1.4,1s-.39.31-.3.36a2.24,2.24,0,0,1,.41.51,2.19,2.19,0,0,1,.1,1.63,6.4,6.4,0,0,1-.81,1.61c-.37.52-.76,1-1.17,1.54a7.18,7.18,0,0,0-.95,1.42c-.15.32-.11.46.08.41l.57-.2a13.43,13.43,0,0,0,2.09-1.33c.81-.6,1.65-1.24,2.5-1.93s1.77-1.38,2.47-2.07S206.68,53.47,207.21,53Zm-8.52-.71a6.34,6.34,0,0,0,1.77-.87,3.84,3.84,0,0,0,1.28-1.49l.12-.1a.93.93,0,0,0,.11-.71s0-.11-.16-.21-.12,0-.12,0a1.45,1.45,0,0,0-1.08.49l-.5.53-.64.82a6.86,6.86,0,0,0-.55.85A1.53,1.53,0,0,0,198.69,52.28Z"/>
        <path class="cls-1" d="M221.89,52.77a.65.65,0,0,1-.15.45,2.74,2.74,0,0,1-.51.51c-.21.15-.43.3-.65.43a1.84,1.84,0,0,0-.43.3l-1.22.81c-.6.41-1.29.83-2.05,1.31s-1.56.92-2.41,1.35a14.84,14.84,0,0,1-2.37,1,3.94,3.94,0,0,1-1.77.16,1.15,1.15,0,0,1-.87-1.15v-.22a3.71,3.71,0,0,1,.33-1.64,9.1,9.1,0,0,1,.78-1.4c.32-.44.67-.87,1-1.28a11.69,11.69,0,0,0,1.06-1.27c0-.11.09-.14,0-.11l-.23.16-.3.25a.54.54,0,0,1-.21.14,15.38,15.38,0,0,1-1.42.82,2.18,2.18,0,0,1-1.68.09h0l-.11-.16a1.09,1.09,0,0,1-.31-.54.52.52,0,0,1,.1-.56,3,3,0,0,1,.57-.27.4.4,0,0,1,.53.16s0,.07,0,.11a.29.29,0,0,0,.33.3,1.81,1.81,0,0,0,.59-.25,9.1,9.1,0,0,0,1-.65l1.25-.84a9.86,9.86,0,0,1,1.14-.65,1.46,1.46,0,0,1,.79-.2.7.7,0,0,1,.37.59,2.6,2.6,0,0,1,0,.88,4.59,4.59,0,0,1-.28,1c-.12.3-.23.53-.3.67a10.65,10.65,0,0,1-1.43,2,17.65,17.65,0,0,0-1.6,1.95,1.58,1.58,0,0,0-.3.72c0,.21.2.27.67.2a7.63,7.63,0,0,0,1.93-.62c.75-.36,1.37-.66,1.88-1,.83-.5,1.61-1,2.35-1.54l2.38-1.66a3.89,3.89,0,0,1,.78-.48C221.44,52.31,221.69,52.42,221.89,52.77Z"/>
        <path class="cls-1" d="M234.1,52.51c.41,0,.59.16.55.37a.52.52,0,0,1-.39.44c-.39.18-.88.41-1.47.71a13.82,13.82,0,0,1-1.77.75,10.52,10.52,0,0,1-1.77.49,2.47,2.47,0,0,1-1.47-.11c-.28.45-.6.89-.92,1.37a9.47,9.47,0,0,1-1.08,1.29,7.07,7.07,0,0,1-1.31,1.06,4.4,4.4,0,0,1-1.52.62,2.48,2.48,0,0,1-1.63-.21,1.93,1.93,0,0,1-1.13-1.42,4.39,4.39,0,0,1,0-2.16,8.27,8.27,0,0,1,1-2.37,7.9,7.9,0,0,1,1.78-2,5.5,5.5,0,0,1,2.09-1.15,3,3,0,0,1,2.2.3,2,2,0,0,1,.8.82,3.54,3.54,0,0,1,.37,1.11,2.86,2.86,0,0,1,0,1,.69.69,0,0,1-.39.53,2.2,2.2,0,0,0,.55.34,2.13,2.13,0,0,0,1.41,0,9.31,9.31,0,0,0,1.42-.69l1.4-.76A2.6,2.6,0,0,1,234.1,52.51Zm-6.83,1.24a2.15,2.15,0,0,1,0-.62,5.61,5.61,0,0,0,0-.82,1.69,1.69,0,0,0-.3-.67.83.83,0,0,0-.71-.28,1.4,1.4,0,0,0-.87.55,10.87,10.87,0,0,0-1.11,1.33A19.9,19.9,0,0,0,223.2,55a10.89,10.89,0,0,0-.82,1.68A3.09,3.09,0,0,0,222.1,58c0,.34.21.5.58.5a2.4,2.4,0,0,0,1-.3,5.69,5.69,0,0,0,.85-.52,9,9,0,0,0,1.52-1.57,16.91,16.91,0,0,0,1.08-1.9Z"/>
        <path class="cls-1" d="M251.7,52.62A.37.37,0,0,1,252,53a.07.07,0,0,1,0,.05.87.87,0,0,1-.51.61,5.39,5.39,0,0,1-1.17.4,5.84,5.84,0,0,0-1.22.41,32.46,32.46,0,0,0-3.54,1.77c-1.15.67-2.3,1.31-3.54,1.93a1.6,1.6,0,0,1-1,.19,1,1,0,0,1-.57-.4,2.89,2.89,0,0,1-.31-.8,3.82,3.82,0,0,1-.11-1c0-.6-.14-1-.28-1s-.48,0-1,.46a11.87,11.87,0,0,0-2.39,2.25c-.66.81-1.36,1.63-2.13,2.48a6.83,6.83,0,0,1-1,.81,1.58,1.58,0,0,1-1,.23c-.38,0-.52-.26-.45-.78a10.27,10.27,0,0,1,.34-1.32c.14-.55.27-1,.37-1.39s.27-.95.46-1.66a19.75,19.75,0,0,1,.75-2.12,8.53,8.53,0,0,1,1-1.77,2,2,0,0,1,1.34-.91c.46,0,.78,0,.92.25a1.32,1.32,0,0,1,.16.87,3.3,3.3,0,0,1-.3,1.06l-.41.87c-.38.73-.81,1.49-1.27,2.28s-.87,1.55-1.22,2.29l-.11.21c.5-.55.91-1,1.19-1.33l.81-1,.5-.57c.21-.27.53-.58.92-1a10.65,10.65,0,0,1,1.27-1.06,3.84,3.84,0,0,1,1.4-.59,1.2,1.2,0,0,1,1.19.41l.16.16a1.7,1.7,0,0,1,.33.9v.94a1.83,1.83,0,0,0,.16.69c0,.16.3.16.64,0a14.28,14.28,0,0,0,1.77-1.06L246,54.67l1.15-.59c.5-.26,1-.51,1.58-.74a14.72,14.72,0,0,1,1.57-.57A3.26,3.26,0,0,1,251.7,52.62Z"/>
        <path class="cls-1" d="M263.24,52.72a.49.49,0,0,1,0,.41,1.07,1.07,0,0,1-.3.3,10,10,0,0,0-1.41.92l-1.77,1.17c-.66.41-1.33.8-2,1.17a15.64,15.64,0,0,1-2.11.88,5.09,5.09,0,0,1-2.05.3,3.52,3.52,0,0,1-2.05-.81,2.29,2.29,0,0,1-.77-2,5,5,0,0,1,.61-2.14,7.24,7.24,0,0,1,1.29-1.77A5,5,0,0,1,254.41,50a4.39,4.39,0,0,1,2.09-.3,1.55,1.55,0,0,1,1.1.5,1.17,1.17,0,0,1,.17.88,2.55,2.55,0,0,1-.4,1,4.64,4.64,0,0,1-.71.88,4.08,4.08,0,0,1-1.33.85,3,3,0,0,1-1.54.19,1.16,1.16,0,0,0-.64,0,2.2,2.2,0,0,0-.23.62,2.6,2.6,0,0,0-.1,1.56c.1.48.53.68,1.29.57a9.55,9.55,0,0,0,3.66-1.33c1.19-.71,2.3-1.4,3.35-2.09.14-.1.39-.3.76-.55a6.46,6.46,0,0,1,.71-.44C262.87,52.28,263.08,52.39,263.24,52.72Zm-9.56.16c-.09.11-.09.16,0,.16H254a4.5,4.5,0,0,0,1.52-.48,2.91,2.91,0,0,0,1.13-1.15c.11-.21.15-.37,0-.48a.34.34,0,0,0-.3-.19,1.19,1.19,0,0,0-.46,0l-.46.19a4.07,4.07,0,0,0-1,.84,7.91,7.91,0,0,0-.69,1.11Z"/>
        <path class="cls-1" d="M75.3,57.4a8.21,8.21,0,0,0-1.63,1.23,1.6,1.6,0,0,0-.45,1.24c.27,1.54,2.25,2.08,2,2.39s-1.34,0-2-.4a3.52,3.52,0,0,1-1.5-2,3.28,3.28,0,0,1,1.1-2.9c.63-.46,1.77.3,2.46.3Z"/>
        <path class="cls-1" d="M165.36,52.26a1,1,0,0,0-.5.13l-.51.26-.29.2A30,30,0,0,0,159,57.41c-1.47,1.69-2.92,3.42-4.35,5.31l-.82,1.1-.58.73-1,1.1a6.24,6.24,0,0,1-1,.86c-.32.22-.52.22-.61,0s0-.26,0-.53a4.12,4.12,0,0,1,.27-.88l.37-1a2.78,2.78,0,0,0,.21-.57q1.62-4.55,3.55-9c1.23-3,2.47-6,3.68-9l.53-1.24,3.73.2c.48-.28.23-.51-.17-.67l-3.31-.18a.23.23,0,0,0,.1-.21.71.71,0,0,1,.11-.25,1.73,1.73,0,0,1,.27-.64l.33-.81c.11-.29.21-.53.3-.78s.14-.44.21-.62a.53.53,0,0,0,0-.39.28.28,0,0,0-.23-.11.92.92,0,0,0-.33,0l-.32.18a2,2,0,0,0-.41.5c-.16.23-.32.51-.51.83a6.92,6.92,0,0,0-.51,1.06L158,43.48H154.2c-.32.12-.51.34-.4.66h3.89l-.34.74c-.28.58-.69,1.47-1.2,2.65s-1.1,2.52-1.77,4a48.64,48.64,0,0,0-1.77,4.59c-.55,1.59-1.15,3.11-1.61,4.56A36.31,36.31,0,0,0,150,64.49a5.53,5.53,0,0,0,0,2.43c.15.46.36.69.66.71a1.76,1.76,0,0,0,1-.36,9.45,9.45,0,0,0,1.18-1c.4-.41.79-.83,1.17-1.28s.69-.83,1-1.2l.55-.73c1.23-1.61,2.5-3.2,3.85-4.76a27.33,27.33,0,0,1,4.42-4.18,3.21,3.21,0,0,1,.48-.34l.48-.31a6.71,6.71,0,0,0,.58-.48.71.71,0,0,0,.27-.41C165.59,52.33,165.5,52.26,165.36,52.26Z"/>
        <path class="cls-1" d="M90.63,44.26a.59.59,0,0,0,.3-.46c0-.27-.39-.41-.82-.46a3.08,3.08,0,0,0-1.66.67A5,5,0,0,0,87,45.64a2.62,2.62,0,0,0-.2.87c0,.35.12.44.5.28a1,1,0,0,0,.42-.41c.13-.17.3-.39.5-.62a5,5,0,0,1,.51-.63,4.44,4.44,0,0,1,.76-.8c.32-.21.48-.28.66-.25S90.45,44.31,90.63,44.26Z"/>
      </g>
    </g>
  </g>
</svg>
