<?xml version="1.0" encoding="UTF-8"?>
<svg id="SVGDoc" width="26" height="23" xmlns="http://www.w3.org/2000/svg" version="1.1"
  xmlns:xlink="http://www.w3.org/1999/xlink" xmlns:avocode="https://avocode.com/" viewBox="0 0 26 23">
  <defs>
    <clipPath id="ClipPath1060">
      <path
        d="M12.99246,5.58201c-3.10593,-7.2849 -11.93436,-5.58568 -11.99249,2.86813c-0.03204,4.64484 4.20399,6.38033 7.0245,8.23673c2.73479,1.80089 4.68132,4.26235 4.98631,5.312c0.26115,-1.02822 2.42912,-3.56112 4.96078,-5.36256c2.76821,-1.97125 7.05654,-3.59244 7.02438,-8.23563c-0.05836,-8.47523 -9.04049,-9.8134 -12.00348,-2.81867z"
        fill="#ffffff"></path>
    </clipPath>
  </defs>
  <desc>Generated with Avocode.</desc>
  <g>
    <g>
      <title>Shape 7 copy 11</title>
      <path
        d="M12.99246,5.58201c-3.10593,-7.2849 -11.93436,-5.58568 -11.99249,2.86813c-0.03204,4.64484 4.20399,6.38033 7.0245,8.23673c2.73479,1.80089 4.68132,4.26235 4.98631,5.312c0.26115,-1.02822 2.42912,-3.56112 4.96078,-5.36256c2.76821,-1.97125 7.05654,-3.59244 7.02438,-8.23563c-0.05836,-8.47523 -9.04049,-9.8134 -12.00348,-2.81867z"
        fill="#000000" fill-opacity="1"></path>
      <path
        d="M12.99246,5.58201c-3.10593,-7.2849 -11.93436,-5.58568 -11.99249,2.86813c-0.03204,4.64484 4.20399,6.38033 7.0245,8.23673c2.73479,1.80089 4.68132,4.26235 4.98631,5.312c0.26115,-1.02822 2.42912,-3.56112 4.96078,-5.36256c2.76821,-1.97125 7.05654,-3.59244 7.02438,-8.23563c-0.05836,-8.47523 -9.04049,-9.8134 -12.00348,-2.81867z"
        fill-opacity="0" fill="#ffffff" stroke-linejoin="round" stroke-linecap="round" stroke-opacity="0.56"
        stroke="#11432e" stroke-miterlimit="20" stroke-width="2" clip-path="url(&quot;#ClipPath1060&quot;)"></path>
    </g>
  </g>
</svg>