<?xml version="1.0" encoding="utf-8"?>
<!-- Generator: Adobe Illustrator 22.1.0, SVG Export Plug-In . SVG Version: 6.00 Build 0)  -->
<svg version="1.1" id="Layer_1" xmlns="http://www.w3.org/2000/svg" xmlns:xlink="http://www.w3.org/1999/xlink" x="0px" y="0px"
	 viewBox="0 0 30.5 30.5" style="enable-background:new 0 0 30.5 30.5;" xml:space="preserve">
<style type="text/css">
	.st0{fill:none;stroke:#13422D;stroke-width:0.4;stroke-miterlimit:10;}
	.st1{fill:#13422D;}
	.st2{fill:none;stroke:#13422D;stroke-width:0.4625;stroke-miterlimit:10;}
	.st3{fill:none;stroke:#030303;stroke-width:0.4625;stroke-miterlimit:10;}
</style>
<path class="st1" d="M28,30.5H16.2V15H28V30.5z M16.7,30h10.8V15.5H16.7V30z M14.2,30.5H2.5V15h11.7V30.5z M3,30h10.8V15.5H3V30z
	 M30.5,13H16.2V7.5h14.2V13z M16.7,12.5H30V8H16.7V12.5z M14.2,13H0V7.5h14.2V13z M0.5,12.5h13.3V8H0.5V12.5z M21.9,6.7H8.6
	C6.2,6.7,5,5,5,3.3C5,1.7,6.1,0,8.5,0c3.7,0,5.8,4,6.7,5.9C16.1,4,18.3,0,21.9,0c2.4,0,3.5,1.7,3.5,3.3C25.4,5,24.2,6.7,21.9,6.7z
	 M15.6,6.2h6.3C24,6.2,25,4.7,25,3.3c0-1.4-0.9-2.9-3-2.9C18.5,0.5,16.4,4.5,15.6,6.2z M8.5,0.5c-2.1,0-3,1.5-3,2.9
	c0,0.8,0.3,1.5,0.8,2c0.6,0.6,1.4,0.9,2.3,0.9h6.3C14.1,4.5,12,0.5,8.5,0.5z M20.9,5h-3l0.2-0.4C19,3.4,20,2.1,21.3,2.1
	c0.9,0,1.3,0.7,1.3,1.4c0,0.4-0.1,0.8-0.4,1.1C22,4.7,21.6,5,20.9,5z M18.8,4.5h2.1c0.4,0,0.7-0.1,0.9-0.3c0.2-0.2,0.3-0.5,0.3-0.7
	c0-0.4-0.3-0.9-0.8-0.9C20.4,2.5,19.7,3.3,18.8,4.5z M12.5,5h-3C8.9,5,8.5,4.7,8.2,4.5C8,4.2,7.8,3.8,7.8,3.4c0-0.7,0.5-1.4,1.3-1.4
	c1.3,0,2.3,1.3,3.1,2.6L12.5,5z M9.1,2.5C8.6,2.5,8.3,3,8.3,3.4c0,0.3,0.1,0.5,0.3,0.7c0.2,0.2,0.5,0.3,0.9,0.3h2.1
	C10.8,3.3,10,2.5,9.1,2.5z"/>
</svg>
