<?xml version="1.0" encoding="utf-8"?>
<!-- Generator: Adobe Illustrator 22.1.0, SVG Export Plug-In . SVG Version: 6.00 Build 0)  -->
<svg version="1.1" id="Layer_1" xmlns="http://www.w3.org/2000/svg" xmlns:xlink="http://www.w3.org/1999/xlink" x="0px" y="0px"
	 viewBox="0 0 9.7 9.8" style="enable-background:new 0 0 9.7 9.8;" xml:space="preserve">
<style type="text/css">
	.st0{fill:#13422D;}
	.st1{fill:none;stroke:#13422D;stroke-width:0.4625;stroke-miterlimit:10;}
	.st2{fill:none;stroke:#030303;stroke-width:0.4625;stroke-miterlimit:10;}
</style>
<path class="st0" d="M8.5,9.8L6.1,7.3C5.4,7.7,4.7,7.9,4,7.9c-2.2,0-4-1.8-4-4s1.8-4,4-4c2.2,0,4,1.8,4,4c0,0.8-0.2,1.5-0.7,2.2
	l2.4,2.4L8.5,9.8z M6.1,6.8l2.4,2.4l0.6-0.6L6.8,6.2l0.1-0.1C7.3,5.5,7.5,4.7,7.5,4c0-2-1.6-3.6-3.6-3.6C2,0.4,0.4,2,0.4,4
	S2,7.5,4,7.5c0.7,0,1.4-0.2,2-0.6L6.1,6.8z"/>
</svg>
