<svg id="Layer_1" data-name="Layer 1" xmlns="http://www.w3.org/2000/svg" viewBox="0 0 148.77 39.28">
  <defs>
    <style>
      .cls-1 {
        fill: #d1b86c;
      }
    </style>
  </defs>
  <title>Szczescie_stworzone_wdomu</title>
  <g>
    <g>
      <path class="cls-1" d="M57.63,28.21c.22,0,.29.09.2.26a2.05,2.05,0,0,1-.29.42,3.3,3.3,0,0,1-1.14.52,2.1,2.1,0,0,1-1.22-.06c-.23-.09-.39-.09-.5,0a1.82,1.82,0,0,0-.36.46c-.15.22-.33.53-.54.92a9.21,9.21,0,0,1-.72,1.08,3.75,3.75,0,0,1-.88.82,1,1,0,0,1-1,.06,1.12,1.12,0,0,1-.65-.89,3.78,3.78,0,0,1,0-1.21,7.84,7.84,0,0,1,.26-1.06c.1-.31.13-.45.09-.43a3.93,3.93,0,0,0-1.18,1q-.66.75-1.29,1.53c-.42.52-.82,1-1.2,1.37s-.68.53-.9.43-.38-.32-.4-.69a5.08,5.08,0,0,1,.11-1.25,13,13,0,0,1,.33-1.3l.3-.91c.12-.32.25-.65.38-1s.27-.64.41-1l0-.12a1.94,1.94,0,0,1,.47-.71,1.09,1.09,0,0,1,.81-.15.61.61,0,0,1,.4.14.28.28,0,0,1,.05.27,1.29,1.29,0,0,1-.17.36c-.08.12-.15.24-.22.36a3.48,3.48,0,0,1-.24.48c-.16.3-.35.64-.55,1s-.41.82-.62,1.26-.36.82-.49,1.14a1.5,1.5,0,0,0-.15.64c0,.11.16.06.43-.17A12.35,12.35,0,0,0,48.1,31c.3-.33.59-.63.88-.92s.81-.78,1.27-1.16A5.21,5.21,0,0,1,51.71,28a.67.67,0,0,1,.52,0,.35.35,0,0,1,.21.45c0,.12-.11.32-.23.59s-.19.5-.26.66-.1.29-.18.56a5.3,5.3,0,0,0-.18.81,2.34,2.34,0,0,0,0,.74.34.34,0,0,0,.38.32c.25,0,.49-.22.74-.58s.49-.77.74-1.2a13.69,13.69,0,0,1,.75-1.2,1,1,0,0,1,.81-.55,1.59,1.59,0,0,1,.37.18.71.71,0,0,0,.49.07,1.44,1.44,0,0,0,.58-.13l.51-.24.4-.22A.64.64,0,0,1,57.63,28.21Z"/>
      <path class="cls-1" d="M74.78,19.86a1.46,1.46,0,0,1,0,.93,5,5,0,0,1-.43,1.13,9.47,9.47,0,0,1-.75,1.26c-.29.43-.63.88-1,1.35-.78.92-1.62,1.81-2.5,2.68a32.26,32.26,0,0,1-2.75,2.41.76.76,0,0,0-.29.26c0,.07-.08.19-.14.36-.35.77-.69,1.54-1,2.31s-.67,1.54-1,2.32l-1.32,3.19c-.11.2-.14.31-.11.31s.11.08.23.24a.19.19,0,0,1,0,.28,1.51,1.51,0,0,1-.23.21l-.26.16c-.07,0-.16,0-.26-.07a.57.57,0,0,1-.14-.24,1.22,1.22,0,0,1,0-.34,2.4,2.4,0,0,1,0-.37,1.89,1.89,0,0,0,0-.3,13.92,13.92,0,0,1,.55-2.26c.27-.81.52-1.54.77-2.19.12-.35.24-.68.37-1s.25-.64.4-1l.09-.3a.84.84,0,0,0-.28.1,1.64,1.64,0,0,0-.27.17l-.54.2a2.07,2.07,0,0,1-.58.12,1.49,1.49,0,0,1-.56-.06.66.66,0,0,1-.41-.35,1.23,1.23,0,0,1-.05-.95,4.23,4.23,0,0,1,.39-.92,4.34,4.34,0,0,1,.47-.74,5.14,5.14,0,0,1,.66-.66,3.89,3.89,0,0,1,.78-.46,1.79,1.79,0,0,1,.85-.13.89.89,0,0,1,.73.41.63.63,0,0,1-.12.78.61.61,0,0,1-.24.2c-.09,0-.17,0-.25-.17a.29.29,0,0,1,0-.2l0-.2a.19.19,0,0,0,0-.15s-.05-.06-.13-.06a.79.79,0,0,0-.57.35c-.2.24-.34.44-.45.6s-.37.52-.56.83a8.33,8.33,0,0,0-.51.89c-.12.26-.14.4,0,.41a1.49,1.49,0,0,0,.48-.07l.81-.37a5.27,5.27,0,0,0,.75-.43,1.2,1.2,0,0,0,.25-.4c.08-.19.14-.33.19-.43C66.4,28.24,67,27,67.67,25.72a34.59,34.59,0,0,1,2.2-3.62l.73-1a8.39,8.39,0,0,1,1-1.09,5.35,5.35,0,0,1,1.12-.82,1.51,1.51,0,0,1,1.13-.2A1.24,1.24,0,0,1,74.78,19.86Zm-.92,1.81a2.6,2.6,0,0,0,.37-1.62.61.61,0,0,0-.55-.43c-.31-.06-.66.11-1,.51a10.34,10.34,0,0,0-1.14,1.39c-.37.53-.7,1.07-1,1.6s-.5.9-.63,1.1c-.38.72-.75,1.43-1.08,2.13l-1,2.14q-.09.21-.06.18l.18-.18c.39-.31.76-.64,1.12-1s.71-.69,1.06-1,.72-.75,1.07-1.13.7-.79,1.05-1.2A12.54,12.54,0,0,0,73.86,21.67Z"/>
      <path class="cls-1" d="M77.78,28.15c.23,0,.33.09.31.21a.29.29,0,0,1-.22.25c-.22.1-.5.23-.83.4a10.21,10.21,0,0,1-1,.43,6.91,6.91,0,0,1-1,.27,1.41,1.41,0,0,1-.83-.06c-.16.25-.34.5-.52.77a6.15,6.15,0,0,1-.61.74,4.67,4.67,0,0,1-.74.59,2.32,2.32,0,0,1-.86.36,1.42,1.42,0,0,1-.92-.13,1.09,1.09,0,0,1-.64-.79,2.59,2.59,0,0,1,0-1.23,4.7,4.7,0,0,1,.57-1.34,4.75,4.75,0,0,1,.95-1.13,3.07,3.07,0,0,1,1.18-.65,1.68,1.68,0,0,1,1.25.17,1.22,1.22,0,0,1,.44.46,2,2,0,0,1,.21.63,1.53,1.53,0,0,1,0,.57.4.4,0,0,1-.22.31,2,2,0,0,0,.31.18,1.22,1.22,0,0,0,.8,0,6.4,6.4,0,0,0,.8-.38c.26-.16.53-.3.79-.43A1.41,1.41,0,0,1,77.78,28.15Zm-3.86.7a1.13,1.13,0,0,1,0-.35,2.4,2.4,0,0,0,0-.46.89.89,0,0,0-.17-.38.48.48,0,0,0-.4-.16.87.87,0,0,0-.49.31,8.83,8.83,0,0,0-.63.75c-.21.3-.42.62-.61,1a6.26,6.26,0,0,0-.46.95,1.79,1.79,0,0,0-.16.73q0,.27.33.27a1.19,1.19,0,0,0,.59-.17,2.82,2.82,0,0,0,.48-.29,4.63,4.63,0,0,0,.86-.89A8.42,8.42,0,0,0,73.79,29Z"/>
      <path class="cls-1" d="M85.21,29.19l0,0a1.23,1.23,0,0,1,.18.75c0,.28,0,.53,0,.74a.48.48,0,0,0,.23.45c.15.08.48,0,1-.16a6.84,6.84,0,0,0,1-.47c.39-.22.77-.46,1.15-.72l1.11-.8c.35-.27.66-.51.93-.74a.58.58,0,0,1,.31-.14c.1,0,.18.06.24.2a.26.26,0,0,1-.07.34,4.08,4.08,0,0,0-.33.25l-.69.55c-.23.18-.47.36-.72.52l-.86.57c-.32.21-.67.41-1,.6a10,10,0,0,1-1.08.46,2.11,2.11,0,0,1-1,.12,1.61,1.61,0,0,1-1.06-.42,1.28,1.28,0,0,1-.14-1.12c.08-.32.09-.52,0-.58s-.27,0-.59.28a2.3,2.3,0,0,0-.48.46c-.15.18-.31.36-.47.53a3.43,3.43,0,0,1-.51.45.94.94,0,0,1-.54.18.51.51,0,0,1-.52-.26,1.56,1.56,0,0,1-.14-.6c0-.22,0-.43,0-.62s0-.32-.07-.36-.21,0-.39.09a4.2,4.2,0,0,0-.53.39,4.66,4.66,0,0,0-.51.47c-.15.17-.26.28-.32.34-.27.27-.51.54-.74.81s-.46.56-.71.85a3.62,3.62,0,0,1-.55.46.92.92,0,0,1-.55.14c-.2,0-.29-.16-.24-.45s.1-.43.18-.75.15-.58.21-.78.1-.31.17-.55l.23-.79c.08-.27.18-.55.28-.83a6.21,6.21,0,0,1,.31-.72,1,1,0,0,1,.53-.53,1.15,1.15,0,0,1,.63-.1.5.5,0,0,1,.4.3.65.65,0,0,1-.09.61c-.1.16-.25.42-.45.77s-.38.69-.56,1-.35.67-.48,1a5.09,5.09,0,0,0-.23.56c.29-.3.51-.55.68-.75l.46-.55.27-.32a6.29,6.29,0,0,1,.54-.57,3.93,3.93,0,0,1,.75-.61,2.1,2.1,0,0,1,.8-.33.75.75,0,0,1,.7.31,1,1,0,0,1,.2.61c0,.25,0,.46,0,.63a.49.49,0,0,0,.12.33c.06,0,.22-.09.46-.37s.44-.53.63-.74a3.9,3.9,0,0,1,.75-.58,1.32,1.32,0,0,1,.59-.14A.78.78,0,0,1,85.21,29.19Z"/>
      <path class="cls-1" d="M102.82,28.33a.3.3,0,0,1-.09.34l-.31.25-.69.55c-.24.18-.48.36-.72.52l-1,.69a7,7,0,0,1-1.2.66,4.83,4.83,0,0,1-1.25.37,1.91,1.91,0,0,1-1.18-.19,1,1,0,0,1-.56-.63,2.17,2.17,0,0,1-.06-.7c0-.22,0-.38.06-.51s0-.12-.15,0l-1,.89c-.4.37-.82.73-1.27,1.08a9.22,9.22,0,0,1-1.35.86,1.82,1.82,0,0,1-1.2.21,1.05,1.05,0,0,1-.55-.34l-.06-.09a1.5,1.5,0,0,1-.26-.84,4.53,4.53,0,0,1,.09-1,9.22,9.22,0,0,1,.28-1c.11-.34.22-.63.32-.87a.86.86,0,0,1,1-.52.47.47,0,0,1,.28.1.26.26,0,0,1,0,.2.73.73,0,0,1-.09.26l-.14.26c0,.13-.13.38-.29.77a9.8,9.8,0,0,0-.37,1.2,3.07,3.07,0,0,0-.07,1.06c0,.29.22.4.55.32a3.37,3.37,0,0,0,1.15-.62,14.24,14.24,0,0,0,1.32-1.1c.44-.41.86-.82,1.27-1.23s.76-.73,1-1a1.46,1.46,0,0,1,.52-.23.7.7,0,0,1,.55.08.77.77,0,0,1,0,.69,5.23,5.23,0,0,0-.31.69,4.6,4.6,0,0,0-.23.78,1.1,1.1,0,0,0,0,.61.48.48,0,0,0,.37.3,1.5,1.5,0,0,0,.82-.19,9.32,9.32,0,0,0,1.11-.54,9.8,9.8,0,0,0,1.07-.66c.68-.47,1.33-1,2-1.5a.59.59,0,0,1,.3-.14C102.68,28.12,102.76,28.19,102.82,28.33Z"/>
      <path class="cls-1" d="M101.33,31.62a.76.76,0,0,1,.59-.36.58.58,0,0,1,.46.22.6.6,0,0,1,.13.52.78.78,0,0,1-.39.54.6.6,0,0,1-.39.1.51.51,0,0,1-.53-.49A.88.88,0,0,1,101.33,31.62Z"/>
    </g>
    <g>
      <path class="cls-1" d="M19.67,11.81l.26,0,.3.08a.51.51,0,0,1,.22.12.19.19,0,0,1,0,.23.34.34,0,0,1-.29.16c-.15,0-.06.1-.25.09s-.65-.1-.84-.12a2.51,2.51,0,0,0-.4,0,33,33,0,0,0-3.59.07,24.63,24.63,0,0,0-3.52.49L11,13l-.55.12c.1.66.21,1.38.32,2.18S11,17,11,17.83a24.84,24.84,0,0,1,0,2.59,11.11,11.11,0,0,1-.39,2.45,6.78,6.78,0,0,1-1,2.09A4.66,4.66,0,0,1,8,26.45,6,6,0,0,1,6.66,27a9.24,9.24,0,0,1-1.57.29,6.25,6.25,0,0,1-1.56,0,4.58,4.58,0,0,1-1.38-.46A3.91,3.91,0,0,1,1,25.71a5.18,5.18,0,0,1-.95-3,6.94,6.94,0,0,1,.18-1.6,8.89,8.89,0,0,1,1-2.21,11.27,11.27,0,0,1,1.52-2,13.84,13.84,0,0,1,1.91-1.68A14.23,14.23,0,0,1,6.63,14l.09-.06c.39-.21.78-.38,1.16-.54s.79-.3,1.2-.44c-.16-1.09-.31-2.17-.44-3.24s-.22-2.09-.25-3.05A15.17,15.17,0,0,1,8.53,4a5.59,5.59,0,0,1,.72-2.12A3.71,3.71,0,0,1,10.75.49,5.43,5.43,0,0,1,13.22,0a4.86,4.86,0,0,1,1.14.12,4.79,4.79,0,0,1,2.48,1.26,3.72,3.72,0,0,1,.77,1.1,3.33,3.33,0,0,1,.28,1.35,2.53,2.53,0,0,1-.1.71,5.26,5.26,0,0,1-.38,1.09,5.47,5.47,0,0,1-.63,1.07,5.19,5.19,0,0,1-.83.92,3.27,3.27,0,0,1-.95.63c-.43.21-.71.24-.86.11A.54.54,0,0,1,14,7.84a1.2,1.2,0,0,1,.24-.58c.13-.18.26-.22.38-.14a.25.25,0,0,1,.11.21.32.32,0,0,0,.11.23c.06.05.16,0,.31,0a4.18,4.18,0,0,0,.67-.59,5.26,5.26,0,0,0,1.44-2.51c0-.1,0-.21.05-.31s0-.2,0-.31a2.6,2.6,0,0,0-.89-2A4,4,0,0,0,14.24.71a3.65,3.65,0,0,0-1-.13,3.05,3.05,0,0,0-2.6,1,4.87,4.87,0,0,0-1,2.67,17,17,0,0,0,.11,3.85c.18,1.45.38,3,.61,4.51l1.07-.25a25.68,25.68,0,0,1,4.1-.52C16.92,11.75,18.3,11.75,19.67,11.81Zm-13,14.51a4,4,0,0,0,2-1.5,6.29,6.29,0,0,0,.95-2.27,11.23,11.23,0,0,0,.21-2.61c0-.9-.07-1.74-.14-2.51s-.13-1.3-.21-1.94-.17-1.27-.28-1.93a16.26,16.26,0,0,0-4.38,2.26A11.45,11.45,0,0,0,1.5,19.48a8,8,0,0,0-.72,1.74,5.82,5.82,0,0,0-.21,1.84A4.51,4.51,0,0,0,1,24.78,3.62,3.62,0,0,0,2.3,26.17a3.92,3.92,0,0,0,1,.42,4.7,4.7,0,0,0,1.12.13,6.27,6.27,0,0,0,1.14-.1A6.56,6.56,0,0,0,6.63,26.32Z"/>
      <path class="cls-1" d="M28.53,12.61c0,.06,0,.14-.08.25a1.59,1.59,0,0,1-.29.29,3.87,3.87,0,0,1-.37.24,1.27,1.27,0,0,0-.24.17l-.69.46c-.34.23-.72.47-1.15.74s-.89.52-1.37.76a8.71,8.71,0,0,1-1.33.56,2.2,2.2,0,0,1-1.05.09.65.65,0,0,1-.49-.65V15.4a2.12,2.12,0,0,1,.19-.93,4.69,4.69,0,0,1,.44-.79,9.15,9.15,0,0,1,.58-.72,6.73,6.73,0,0,0,.6-.72c0-.06,0-.08,0-.06l-.13.09-.32.25a8.91,8.91,0,0,1-1.18.5A1.66,1.66,0,0,1,20.12,13l-.09-.1a.67.67,0,0,1-.15-.29.3.3,0,0,1,.06-.32,2,2,0,0,1,.32-.15c.15-.06.23-.08.32.15a.44.44,0,0,0,.31.22,2.66,2.66,0,0,0,.78-.12,5.3,5.3,0,0,0,1-.44c.24-.16.38-.44.62-.59a4.06,4.06,0,0,1,.67-.36.78.78,0,0,1,.58,0,.61.61,0,0,1,.14.36,1.69,1.69,0,0,1,0,.5,2.09,2.09,0,0,1-.16.54,3,3,0,0,1-.17.38,6,6,0,0,1-.81,1.11,10.76,10.76,0,0,0-.9,1.1.89.89,0,0,0-.17.41c0,.12.11.15.38.11a4,4,0,0,0,1.09-.35c.42-.2.77-.37,1.06-.54.47-.28.91-.58,1.33-.87l1.34-.94a2.92,2.92,0,0,1,.44-.27A.29.29,0,0,1,28.53,12.61Z"/>
      <path class="cls-1" d="M34.88,12.58c.1.12.11.22,0,.31l-.3.24a10.66,10.66,0,0,1-1.41,1c-.49.31-1,.61-1.53.89l-.85.43a6.73,6.73,0,0,1-1,.43,5,5,0,0,1-1,.26,1.82,1.82,0,0,1-.91-.07,1.11,1.11,0,0,1-.61-.52,1.58,1.58,0,0,1-.12-.76,3,3,0,0,1,.18-.82,7.64,7.64,0,0,1,.31-.73,7.37,7.37,0,0,1,.61-.93,5.32,5.32,0,0,1,.85-.86,3.6,3.6,0,0,1,1-.6,2.58,2.58,0,0,1,1.09-.18.91.91,0,0,1,.87.47,1.23,1.23,0,0,1,.08,1,3.68,3.68,0,0,1-.43.66,3,3,0,0,1-.52.54c-.19.12-.37.06-.55-.19-.07-.08-.09-.15-.07-.2a.33.33,0,0,1,.11-.13.5.5,0,0,1,.19-.11l.2-.11a1.76,1.76,0,0,0,.29-.31A2.41,2.41,0,0,0,31.6,12a.66.66,0,0,0,0-.48.39.39,0,0,0-.4-.23,1.63,1.63,0,0,0-.75.4,5,5,0,0,0-.79.8c-.24.3-.47.62-.69.93a7.25,7.25,0,0,0-.47.79c-.06.12-.13.27-.2.44a4,4,0,0,0-.16.49.45.45,0,0,0,.08.38c.08.11.25.14.49.1a2.91,2.91,0,0,0,.63-.16l.72-.27c.25-.11.49-.21.72-.33a5.32,5.32,0,0,0,.6-.32A14.18,14.18,0,0,0,33,13.65a9.92,9.92,0,0,0,1.41-1.07A.31.31,0,0,1,34.88,12.58Z"/>
      <path class="cls-1" d="M41.63,12.61c0,.06,0,.14-.08.25a1.59,1.59,0,0,1-.29.29,2.92,2.92,0,0,1-.37.24,1.27,1.27,0,0,0-.24.17L40,14c-.34.23-.72.47-1.15.74s-.89.52-1.37.76a8.31,8.31,0,0,1-1.33.56,2.2,2.2,0,0,1-1,.09.65.65,0,0,1-.49-.65V15.4a2.12,2.12,0,0,1,.19-.93,4.69,4.69,0,0,1,.44-.79c.18-.24.37-.48.58-.72a6.73,6.73,0,0,0,.6-.72c0-.06,0-.08,0-.06l-.12.09-.17.14a.33.33,0,0,1-.13.08c-.24.16-.51.31-.79.46a1.22,1.22,0,0,1-.92.06L34.2,13l-.06-.09a.59.59,0,0,1-.18-.3.3.3,0,0,1,.06-.32,2,2,0,0,1,.32-.15.23.23,0,0,1,.33.15c0,.12.1.18.18.17a1.15,1.15,0,0,0,.34-.14,5.78,5.78,0,0,0,.56-.37l.71-.47a5.69,5.69,0,0,1,.64-.37.84.84,0,0,1,.45-.11.39.39,0,0,1,.21.33,1.69,1.69,0,0,1,0,.5,2.55,2.55,0,0,1-.15.54l-.17.38a6.62,6.62,0,0,1-.82,1.11,12.28,12.28,0,0,0-.9,1.1,1,1,0,0,0-.17.41c0,.12.12.15.38.11A4,4,0,0,0,37,15.08c.42-.2.77-.37,1.06-.54.47-.28.92-.58,1.34-.87s.86-.61,1.33-.94a2.92,2.92,0,0,1,.44-.27A.29.29,0,0,1,41.63,12.61Z"/>
      <path class="cls-1" d="M47.88,12.58a.27.27,0,0,1,0,.23.61.61,0,0,1-.16.17,4.74,4.74,0,0,0-.8.52l-1,.66c-.36.23-.75.45-1.15.66a8.13,8.13,0,0,1-1.19.5,3,3,0,0,1-1.15.17A2,2,0,0,1,41.25,15a1.28,1.28,0,0,1-.43-1.1,3,3,0,0,1,.34-1.21,3.93,3.93,0,0,1,.74-1,2.78,2.78,0,0,1,1-.66,2.5,2.5,0,0,1,1.18-.17.84.84,0,0,1,.62.28.66.66,0,0,1,.11.5,1.81,1.81,0,0,1-.23.59,3.5,3.5,0,0,1-.4.5,2.44,2.44,0,0,1-.76.48,1.69,1.69,0,0,1-.87.11.61.61,0,0,0-.35,0s-.1.15-.14.35a1.67,1.67,0,0,0-.06.88c.06.27.3.38.73.32a5.5,5.5,0,0,0,2.08-.75c.66-.4,1.29-.79,1.88-1.18l.43-.31.4-.25C47.67,12.33,47.8,12.39,47.88,12.58Zm-5.4.09q-.06.09,0,.09h.15a2.47,2.47,0,0,0,.86-.27,1.69,1.69,0,0,0,.65-.65.31.31,0,0,0,0-.27.19.19,0,0,0-.17-.11.6.6,0,0,0-.26,0l-.26.11a2.74,2.74,0,0,0-.57.47A4.58,4.58,0,0,0,42.48,12.67Z"/>
      <path class="cls-1" d="M48.46,10.65a2.55,2.55,0,0,1,1.34-.82,1.31,1.31,0,0,1,1,.17.78.78,0,0,1,.3.8,1.75,1.75,0,0,1-.88,1,8.38,8.38,0,0,1-.75.46l-.78.46a1.81,1.81,0,0,0,.37.49,2.54,2.54,0,0,1,1.08,1.68,2.25,2.25,0,0,1-.72,1.82,3.59,3.59,0,0,1-.78.66,3.79,3.79,0,0,1-.95.46,3,3,0,0,1-1,.15,1.92,1.92,0,0,1-1-.29,1,1,0,0,1-.49-.58,1.59,1.59,0,0,1-.08-.71,1.81,1.81,0,0,1,.19-.61c.09-.18.2-.29.32-.31a.4.4,0,0,1,.32.08.69.69,0,0,1,.22.28.77.77,0,0,1,.07.32q0,.15-.06.18s-.06,0-.14,0a.39.39,0,0,0-.21,0,.28.28,0,0,0-.15.15c0,.07,0,.19.07.36a.66.66,0,0,0,.34.36,1.24,1.24,0,0,0,.55.14,2,2,0,0,0,.6-.06,3.8,3.8,0,0,0,.51-.17,2,2,0,0,0,.75-.6,1.86,1.86,0,0,0,.37-.81,1.82,1.82,0,0,0-.07-.89,2.23,2.23,0,0,0-.5-.86L48.25,14a1.66,1.66,0,0,1-.69-1.69A3.2,3.2,0,0,1,48.46,10.65Zm.15,1.47a3.5,3.5,0,0,0,.5-.25,6.78,6.78,0,0,0,.79-.49,2.42,2.42,0,0,0,.59-.53c.12-.18.08-.31-.13-.39a.88.88,0,0,0-.64,0,1.28,1.28,0,0,0-.55.37,3.42,3.42,0,0,0-.43.61,1,1,0,0,0-.16.71Z"/>
      <path class="cls-1" d="M59,12.58c.11.12.11.22,0,.31l-.29.24a10.66,10.66,0,0,1-1.41,1c-.5.31-1,.61-1.54.89l-.84.43a6.85,6.85,0,0,1-1,.43,5,5,0,0,1-1,.26,1.78,1.78,0,0,1-.9-.07,1.13,1.13,0,0,1-.62-.52,1.58,1.58,0,0,1-.12-.76A2.71,2.71,0,0,1,51.5,14a7.78,7.78,0,0,1,.3-.73,7.51,7.51,0,0,1,.62-.93,4.88,4.88,0,0,1,.84-.86,3.74,3.74,0,0,1,1-.6,2.58,2.58,0,0,1,1.09-.18.94.94,0,0,1,.88.47,1.23,1.23,0,0,1,.07,1,3.21,3.21,0,0,1-.43.66,3,3,0,0,1-.52.54c-.18.12-.37.06-.55-.19a.22.22,0,0,1-.06-.2.27.27,0,0,1,.11-.13.54.54,0,0,1,.18-.11l.2-.11a1.45,1.45,0,0,0,.29-.31,2.41,2.41,0,0,0,.23-.36.66.66,0,0,0,0-.48.38.38,0,0,0-.4-.23,1.73,1.73,0,0,0-.75.4,4.56,4.56,0,0,0-.78.8c-.25.3-.48.62-.69.93a6.18,6.18,0,0,0-.48.79c-.06.12-.13.27-.2.44a2.7,2.7,0,0,0-.15.49.45.45,0,0,0,.07.38c.09.11.25.14.5.1a3.23,3.23,0,0,0,.63-.16l.72-.27c.24-.11.48-.21.72-.33s.43-.22.6-.32a13.27,13.27,0,0,0,1.56-.89,9.92,9.92,0,0,0,1.41-1.07C58.71,12.39,58.88,12.39,59,12.58Z"/>
      <path class="cls-1" d="M59.38,15.49a2.73,2.73,0,0,0,.77-.18,6.11,6.11,0,0,0,1-.48,10.93,10.93,0,0,0,1.15-.72c.38-.26.75-.53,1.11-.79s.67-.52.93-.74a.6.6,0,0,1,.29-.14c.1,0,.18.06.26.2a.29.29,0,0,1-.09.34l-.3.24c-.25.19-.49.37-.71.56s-.46.35-.71.52l-.86.56a8.53,8.53,0,0,1-1,.6,7.14,7.14,0,0,1-1.08.46,2.09,2.09,0,0,1-1,.13,1.58,1.58,0,0,1-1-.43,1.29,1.29,0,0,1-.32-.8,2.6,2.6,0,0,1,.14-1,8.33,8.33,0,0,1,.38-1,.91.91,0,0,1,1-.52.46.46,0,0,1,.28.11.26.26,0,0,1,0,.2.73.73,0,0,1-.09.26l-.14.26c0,.1-.1.28-.2.52a6.25,6.25,0,0,0-.23.77,2.33,2.33,0,0,0-.06.72.34.34,0,0,0,.34.35Zm1.2-5.4a.5.5,0,0,1,.37.14c.08.09,0,.24-.31.45s-.49.39-.61.5a.65.65,0,0,1-.47.17c-.16,0-.21-.12-.16-.35a1.4,1.4,0,0,1,.29-.63.66.66,0,0,1,.41-.26Z"/>
      <path class="cls-1" d="M71,12.58a.28.28,0,0,1,0,.23.67.67,0,0,1-.17.17,5.18,5.18,0,0,0-.8.52l-1,.66c-.37.23-.75.45-1.15.66a8.73,8.73,0,0,1-1.2.5,3,3,0,0,1-1.15.17A2,2,0,0,1,64.41,15a1.3,1.3,0,0,1-.42-1.1,3,3,0,0,1,.33-1.21,4.17,4.17,0,0,1,.74-1,2.91,2.91,0,0,1,1-.66,2.48,2.48,0,0,1,1.18-.17.84.84,0,0,1,.61.28.66.66,0,0,1,.11.5,1.61,1.61,0,0,1-.23.59,2.92,2.92,0,0,1-.4.5,2.52,2.52,0,0,1-.75.48,1.75,1.75,0,0,1-.88.11.61.61,0,0,0-.35,0s-.1.15-.14.35a1.67,1.67,0,0,0-.06.88c.06.27.31.38.74.32A5.52,5.52,0,0,0,68,14.13c.66-.4,1.29-.79,1.89-1.18.08-.06.22-.17.43-.31a3.85,3.85,0,0,1,.39-.25C70.84,12.33,71,12.39,71,12.58Zm-5.4.09q-.06.09,0,.09h.16a2.61,2.61,0,0,0,.86-.27,1.74,1.74,0,0,0,.64-.65c.06-.12.08-.21,0-.27a.18.18,0,0,0-.16-.11.58.58,0,0,0-.26,0,1.56,1.56,0,0,0-.26.11,2.3,2.3,0,0,0-.57.47A4.69,4.69,0,0,0,65.64,12.67Z"/>
      <path class="cls-1" d="M82.59,10.65a2.53,2.53,0,0,1,1.33-.82A1.34,1.34,0,0,1,85,10a.78.78,0,0,1,.29.8c0,.35-.34.69-.87,1-.25.17-.5.32-.75.46l-.79.46a2.33,2.33,0,0,0,.37.49,2.52,2.52,0,0,1,1.09,1.68,2.32,2.32,0,0,1-.72,1.82,3.59,3.59,0,0,1-.78.66,3.79,3.79,0,0,1-1,.46,3,3,0,0,1-1,.15,1.89,1.89,0,0,1-1-.29,1,1,0,0,1-.49-.58,1.59,1.59,0,0,1-.08-.71,1.81,1.81,0,0,1,.19-.61c.09-.18.19-.29.32-.31a.4.4,0,0,1,.32.08.67.67,0,0,1,.21.28.66.66,0,0,1,.08.32q0,.15-.06.18a.18.18,0,0,1-.14,0,.39.39,0,0,0-.21,0,.29.29,0,0,0-.16.15c0,.07,0,.19.08.36a.63.63,0,0,0,.34.36,1.24,1.24,0,0,0,.55.14,2,2,0,0,0,.6-.06,3.63,3.63,0,0,0,.5-.17,2,2,0,0,0,.76-.6A1.84,1.84,0,0,0,83,15.8a1.82,1.82,0,0,0-.06-.89,2.23,2.23,0,0,0-.5-.86l-.1-.09a1.69,1.69,0,0,1-.69-1.69A3.3,3.3,0,0,1,82.59,10.65Zm.15,1.47a3.63,3.63,0,0,0,.49-.25,6.14,6.14,0,0,0,.8-.49,2.18,2.18,0,0,0,.58-.53q.19-.27-.12-.39a.88.88,0,0,0-.64,0,1.37,1.37,0,0,0-.56.37,4.88,4.88,0,0,0-.43.61,1,1,0,0,0-.15.71Z"/>
      <path class="cls-1" d="M103.78,12.52c.22,0,.29.08.2.26a1.73,1.73,0,0,1-.29.41,3,3,0,0,1-1.14.52,2,2,0,0,1-1.23-.06.52.52,0,0,0-.49,0,2,2,0,0,0-.36.46c-.15.23-.33.53-.54.92a9.35,9.35,0,0,1-.72,1.09,3.75,3.75,0,0,1-.88.82,1,1,0,0,1-1,.06,1.14,1.14,0,0,1-.65-.89,3.51,3.51,0,0,1,0-1.21A6.32,6.32,0,0,1,97,13.84c.1-.31.13-.45.09-.43a3.87,3.87,0,0,0-1.18,1c-.44.51-.87,1-1.29,1.54a17.47,17.47,0,0,1-1.2,1.36c-.38.39-.68.54-.9.43s-.38-.31-.4-.69a4.57,4.57,0,0,1,.11-1.24,13,13,0,0,1,.33-1.3c.14-.42.23-.72.3-.91s.25-.65.38-1l.41-1,0-.12a2,2,0,0,1,.48-.71,1.08,1.08,0,0,1,.81-.15.62.62,0,0,1,.4.13.3.3,0,0,1,0,.28,1.25,1.25,0,0,1-.17.35l-.22.37a4.28,4.28,0,0,1-.24.48c-.17.29-.35.64-.55,1s-.41.82-.62,1.26-.37.82-.49,1.13a1.57,1.57,0,0,0-.15.65c0,.11.16.05.43-.17s.58-.56.87-.89.59-.63.88-.92.81-.78,1.27-1.17a5.45,5.45,0,0,1,1.46-.89.72.72,0,0,1,.52,0,.35.35,0,0,1,.21.44,5.41,5.41,0,0,1-.23.6l-.26.66c0,.1-.1.29-.18.55a7.51,7.51,0,0,0-.19.82,2.57,2.57,0,0,0,0,.73.34.34,0,0,0,.38.33,1.14,1.14,0,0,0,.74-.59c.24-.37.49-.76.74-1.19a13.69,13.69,0,0,1,.75-1.2,1,1,0,0,1,.81-.55,1.59,1.59,0,0,1,.37.18.79.79,0,0,0,.49.06,1.43,1.43,0,0,0,.58-.12,4,4,0,0,0,.51-.25l.4-.21A.64.64,0,0,1,103.78,12.52Z"/>
      <path class="cls-1" d="M111.33,12.46q.33,0,.3.21a.3.3,0,0,1-.21.25c-.23.1-.5.23-.83.4a9.79,9.79,0,0,1-1,.42,6,6,0,0,1-1,.28,1.37,1.37,0,0,1-.82-.06l-.53.77a5.36,5.36,0,0,1-.61.73,4.23,4.23,0,0,1-.74.6,2.43,2.43,0,0,1-.85.35,1.45,1.45,0,0,1-.93-.12,1.11,1.11,0,0,1-.64-.8,2.56,2.56,0,0,1,0-1.22,5,5,0,0,1,.56-1.34,4.6,4.6,0,0,1,1-1.13,3,3,0,0,1,1.18-.65,1.65,1.65,0,0,1,1.24.17,1.15,1.15,0,0,1,.44.46,1.76,1.76,0,0,1,.22.63,1.53,1.53,0,0,1,0,.57.4.4,0,0,1-.21.3,1,1,0,0,0,.3.19,1.22,1.22,0,0,0,.8,0,4.9,4.9,0,0,0,.8-.39l.8-.43A1.45,1.45,0,0,1,111.33,12.46Zm-3.87.7a1.56,1.56,0,0,1,0-.35,2.4,2.4,0,0,0-.05-.46.78.78,0,0,0-.17-.38.45.45,0,0,0-.39-.16c-.13,0-.29.1-.5.31a5.62,5.62,0,0,0-.62.75,11.11,11.11,0,0,0-.62,1,7.38,7.38,0,0,0-.46.95,1.92,1.92,0,0,0-.15.72c0,.19.12.28.32.28a1.37,1.37,0,0,0,.6-.17,3.09,3.09,0,0,0,.47-.29,4.63,4.63,0,0,0,.86-.89,9.07,9.07,0,0,0,.62-1.07Z"/>
      <path class="cls-1" d="M117.09,12.73c.33-.26.56-.34.68-.21s.12.26,0,.43a2.66,2.66,0,0,1-.37.35l-.67.55-.7.57-.41.37-.87.72c-.42.34-.87.67-1.34,1a9.78,9.78,0,0,1-1.35.79,1.16,1.16,0,0,1-1,.16.81.81,0,0,1-.41-.52,1.79,1.79,0,0,1,0-.73,3.12,3.12,0,0,1,.24-.73,5.32,5.32,0,0,1,.32-.6,2.84,2.84,0,0,1,.53-.69c.18-.17.4-.36.67-.57s.22-.23.17-.27a.59.59,0,0,0-.32-.1l-.56-.09a.33.33,0,0,1-.27-.15,1,1,0,0,1,0-.95,3.81,3.81,0,0,1,.63-1.12,4.06,4.06,0,0,1,1-.88,1.34,1.34,0,0,1,1.08-.18l.21.09a.88.88,0,0,1,.37.43,1.18,1.18,0,0,1-.15.86,2.87,2.87,0,0,1-.62.77c-.2.16-.47.35-.79.58s-.22.17-.17.2a1.25,1.25,0,0,1,.23.29,1.23,1.23,0,0,1,.06.92,3.71,3.71,0,0,1-.46.91q-.31.44-.66.87a4,4,0,0,0-.54.8c-.08.18-.06.26.05.23l.32-.11a7.85,7.85,0,0,0,1.18-.75c.46-.34.93-.7,1.41-1.09s1-.78,1.4-1.17S116.79,13,117.09,12.73Zm-4.81-.4a3.59,3.59,0,0,0,1-.49A2.22,2.22,0,0,0,114,11l.07-.06a.52.52,0,0,0,.06-.4s0-.06-.09-.12-.07,0-.07,0c-.18,0-.38.05-.61.28l-.28.3-.36.46a3.49,3.49,0,0,0-.31.48A.86.86,0,0,0,112.28,12.33Z"/>
      <path class="cls-1" d="M125.38,12.61c0,.06,0,.14-.08.25a1.59,1.59,0,0,1-.29.29,3.87,3.87,0,0,1-.37.24,1.27,1.27,0,0,0-.24.17l-.69.46c-.34.23-.73.47-1.16.74s-.88.52-1.36.76a8.39,8.39,0,0,1-1.34.56,2.15,2.15,0,0,1-1,.09.65.65,0,0,1-.49-.65V15.4a2.12,2.12,0,0,1,.19-.93,4.69,4.69,0,0,1,.44-.79,9.15,9.15,0,0,1,.58-.72,6.73,6.73,0,0,0,.6-.72c0-.06.05-.08,0-.06l-.13.09-.17.14c-.06.05-.1.08-.12.08a8.45,8.45,0,0,1-.8.46A1.21,1.21,0,0,1,118,13L118,13l-.06-.09a.59.59,0,0,1-.18-.3.3.3,0,0,1,.06-.32,2,2,0,0,1,.32-.15.22.22,0,0,1,.32.15c0,.12.1.18.19.17a1,1,0,0,0,.33-.14,4.75,4.75,0,0,0,.57-.37l.71-.47a5.69,5.69,0,0,1,.64-.37.83.83,0,0,1,.45-.11.39.39,0,0,1,.21.33,1.69,1.69,0,0,1,0,.5,2.57,2.57,0,0,1-.16.54c-.07.17-.13.3-.17.38a6,6,0,0,1-.81,1.11,10.76,10.76,0,0,0-.9,1.1.89.89,0,0,0-.17.41c0,.12.11.15.38.11a4,4,0,0,0,1.09-.35c.42-.2.77-.37,1.06-.54.47-.28.91-.58,1.33-.87l1.34-.94a2.92,2.92,0,0,1,.44-.27C125.13,12.35,125.27,12.41,125.38,12.61Z"/>
      <path class="cls-1" d="M132.28,12.46c.23,0,.33.09.31.21a.3.3,0,0,1-.22.25c-.22.1-.5.23-.83.4a8.24,8.24,0,0,1-1,.42,5.9,5.9,0,0,1-1,.28,1.41,1.41,0,0,1-.83-.06c-.16.25-.34.5-.52.77a5.36,5.36,0,0,1-.61.73,4.23,4.23,0,0,1-.74.6,2.48,2.48,0,0,1-.86.35,1.42,1.42,0,0,1-.92-.12,1.09,1.09,0,0,1-.64-.8,2.55,2.55,0,0,1,0-1.22,4.7,4.7,0,0,1,.57-1.34A4.36,4.36,0,0,1,126,11.8a3.07,3.07,0,0,1,1.18-.65,1.65,1.65,0,0,1,1.24.17,1.11,1.11,0,0,1,.45.46,2,2,0,0,1,.21.63,1.54,1.54,0,0,1,0,.57.38.38,0,0,1-.22.3,1.32,1.32,0,0,0,.31.19,1.22,1.22,0,0,0,.8,0,5.33,5.33,0,0,0,.8-.39l.79-.43A1.49,1.49,0,0,1,132.28,12.46Zm-3.86.7a1.08,1.08,0,0,1,0-.35,2.38,2.38,0,0,0,0-.46.89.89,0,0,0-.17-.38.47.47,0,0,0-.4-.16.82.82,0,0,0-.49.31,6.5,6.5,0,0,0-.63.75,11.06,11.06,0,0,0-.61,1,6.26,6.26,0,0,0-.46.95,1.78,1.78,0,0,0-.16.72c0,.19.12.28.33.28a1.3,1.3,0,0,0,.59-.17,2.82,2.82,0,0,0,.48-.29,5,5,0,0,0,.86-.89,9.2,9.2,0,0,0,.61-1.07Z"/>
      <path class="cls-1" d="M142.22,12.52a.21.21,0,0,1,.17.27.49.49,0,0,1-.29.34,3,3,0,0,1-.66.23,3.29,3.29,0,0,0-.69.23,19,19,0,0,0-2,1c-.65.38-1.3.74-2,1.09a.91.91,0,0,1-.54.11.57.57,0,0,1-.32-.23,1.51,1.51,0,0,1-.18-.45,2.35,2.35,0,0,1-.06-.54c0-.34-.08-.54-.16-.59s-.27,0-.58.26a6.85,6.85,0,0,0-1.35,1.27c-.37.46-.77.92-1.2,1.4a4.31,4.31,0,0,1-.55.46.94.94,0,0,1-.55.13c-.21,0-.29-.15-.25-.44s.11-.44.19-.75.15-.58.21-.78.15-.54.26-.94a11.42,11.42,0,0,1,.42-1.2,5.1,5.1,0,0,1,.56-1,1.14,1.14,0,0,1,.76-.51c.26,0,.44,0,.52.14a.78.78,0,0,1,.09.49,1.94,1.94,0,0,1-.17.6l-.23.49q-.33.62-.72,1.29t-.69,1.29l-.06.12c.28-.31.51-.56.67-.75l.46-.55.28-.32c.12-.15.3-.33.52-.56a6.73,6.73,0,0,1,.72-.6,2.15,2.15,0,0,1,.79-.33.67.67,0,0,1,.67.23l.09.09a1,1,0,0,1,.19.51c0,.19,0,.37,0,.53a1,1,0,0,0,.09.39c0,.09.17.09.36,0a8.1,8.1,0,0,0,1-.6l1-.66.65-.33c.28-.15.58-.29.89-.42a6.83,6.83,0,0,1,.89-.32A1.81,1.81,0,0,1,142.22,12.52Z"/>
      <path class="cls-1" d="M148.74,12.58a.27.27,0,0,1,0,.23.67.67,0,0,1-.17.17,5.7,5.7,0,0,0-.8.52l-1,.66c-.37.23-.75.45-1.15.66a9.16,9.16,0,0,1-1.19.5,3,3,0,0,1-1.16.17,2,2,0,0,1-1.16-.46,1.28,1.28,0,0,1-.43-1.1,2.87,2.87,0,0,1,.34-1.21,4.14,4.14,0,0,1,.73-1,2.91,2.91,0,0,1,1-.66,2.5,2.5,0,0,1,1.18-.17.86.86,0,0,1,.62.28.66.66,0,0,1,.1.5,1.45,1.45,0,0,1-.23.59,2.51,2.51,0,0,1-.4.5,2.29,2.29,0,0,1-.75.48,1.71,1.71,0,0,1-.87.11.65.65,0,0,0-.36,0s-.09.15-.13.35a1.49,1.49,0,0,0-.06.88c.06.27.3.38.73.32a5.4,5.4,0,0,0,2.07-.75c.67-.4,1.3-.79,1.89-1.18.08-.06.22-.17.43-.31a3.58,3.58,0,0,1,.4-.25C148.53,12.33,148.65,12.39,148.74,12.58Zm-5.4.09q-.08.09,0,.09h.15a2.54,2.54,0,0,0,.86-.27,1.67,1.67,0,0,0,.64-.65c.06-.12.08-.21,0-.27a.19.19,0,0,0-.17-.11.6.6,0,0,0-.26,0l-.26.11a2.3,2.3,0,0,0-.57.47A4.58,4.58,0,0,0,143.34,12.67Z"/>
      <path class="cls-1" d="M42.58,15.22a4.62,4.62,0,0,0-.92.7.89.89,0,0,0-.25.7c.15.87,1.27,1.17,1.15,1.35s-.76,0-1.14-.23a2,2,0,0,1-.85-1.1A1.86,1.86,0,0,1,41.19,15c.36-.26,1,.17,1.39.17Z"/>
      <path class="cls-1" d="M93.45,12.32a.61.61,0,0,0-.28.07l-.29.15-.16.11a16.85,16.85,0,0,0-2.86,2.58c-.83.95-1.65,1.93-2.46,3l-.46.62-.33.41-.57.62a3.37,3.37,0,0,1-.56.49c-.18.12-.29.12-.34,0s0-.15,0-.3.1-.32.15-.5L85.5,19a2.06,2.06,0,0,0,.12-.32q.91-2.57,2-5.09c.7-1.69,1.4-3.38,2.08-5.07L90,7.82l2.11.11c.27-.16.13-.29-.1-.38l-1.87-.1a.14.14,0,0,0,.06-.12.42.42,0,0,1,.06-.14c0-.1.08-.22.15-.36l.19-.46c.06-.16.12-.3.17-.44s.08-.25.12-.35a.33.33,0,0,0,0-.22.15.15,0,0,0-.13-.06.46.46,0,0,0-.19,0l-.18.1a1.25,1.25,0,0,0-.23.28c-.09.13-.18.29-.29.47s-.2.39-.29.6l-.29.61-2.14,0c-.18.07-.29.19-.23.37.73,0,1.46,0,2.2,0l-.19.42c-.16.33-.39.83-.68,1.5s-.62,1.42-1,2.24-.69,1.69-1,2.59-.65,1.76-.91,2.58a19.11,19.11,0,0,0-.59,2.17,3,3,0,0,0,0,1.37c.08.26.2.39.37.4a1,1,0,0,0,.58-.2,5.37,5.37,0,0,0,.67-.57q.34-.34.66-.72c.2-.24.39-.47.55-.68l.31-.41c.69-.91,1.41-1.81,2.17-2.69a15.46,15.46,0,0,1,2.5-2.36,1.63,1.63,0,0,1,.27-.19L93.1,13a3.43,3.43,0,0,0,.33-.27.37.37,0,0,0,.15-.23C93.58,12.36,93.53,12.32,93.45,12.32Z"/>
      <path class="cls-1" d="M51.24,7.8a.32.32,0,0,0,.17-.26c0-.15-.22-.23-.46-.26a1.73,1.73,0,0,0-.94.38,2.85,2.85,0,0,0-.85.92,1.54,1.54,0,0,0-.11.49c0,.2.07.25.28.16A.57.57,0,0,0,49.57,9c.07-.1.17-.22.28-.35a3.05,3.05,0,0,1,.29-.36,2.59,2.59,0,0,1,.43-.45c.18-.12.27-.16.37-.14S51.14,7.83,51.24,7.8Z"/>
    </g>
  </g>
</svg>
